# Original VulkanTron Obsidian cycle; generated by create_obsidian_art.py
mtllib lightcycle.mtl
v -0.690000 -2.773634 0.290500
v -0.690000 -2.669000 -0.100000
v -0.690000 -3.450000 -0.100000
v -0.690000 -2.712146 0.326000
v -0.690000 -2.598000 -0.100000
v -0.690000 -2.392410 0.510600
v -0.690000 -2.228800 -0.100000
v -0.690000 -2.294029 0.567400
v -0.690000 -2.115200 -0.100000
v -0.690000 -2.220244 0.610000
v -0.690000 -2.030000 -0.100000
v -0.690000 -3.059500 0.576366
v -0.690000 -3.024000 0.637854
v -0.690000 -2.839400 0.957590
v -0.690000 -2.782600 1.055971
v -0.690000 -2.740000 1.129756
v -0.690000 -3.450000 0.681000
v -0.690000 -3.450000 0.752000
v -0.690000 -3.450000 1.121200
v -0.690000 -3.450000 1.234800
v -0.690000 -3.450000 1.320000
v -0.690000 -3.840500 0.576366
v -0.690000 -3.876000 0.637854
v -0.690000 -4.060600 0.957590
v -0.690000 -4.117400 1.055971
v -0.690000 -4.160000 1.129756
v -0.690000 -4.126366 0.290500
v -0.690000 -4.187854 0.326000
v -0.690000 -4.507590 0.510600
v -0.690000 -4.605971 0.567400
v -0.690000 -4.679756 0.610000
v -0.690000 -4.231000 -0.100000
v -0.690000 -4.302000 -0.100000
v -0.690000 -4.671200 -0.100000
v -0.690000 -4.784800 -0.100000
v -0.690000 -4.870000 -0.100000
v -0.690000 -4.126366 -0.490500
v -0.690000 -4.187854 -0.526000
v -0.690000 -4.507590 -0.710600
v -0.690000 -4.605971 -0.767400
v -0.690000 -4.679756 -0.810000
v -0.690000 -3.840500 -0.776366
v -0.690000 -3.876000 -0.837854
v -0.690000 -4.060600 -1.157590
v -0.690000 -4.117400 -1.255971
v -0.690000 -4.160000 -1.329756
v -0.690000 -3.450000 -0.881000
v -0.690000 -3.450000 -0.952000
v -0.690000 -3.450000 -1.321200
v -0.690000 -3.450000 -1.434800
v -0.690000 -3.450000 -1.520000
v -0.690000 -3.059500 -0.776366
v -0.690000 -3.024000 -0.837854
v -0.690000 -2.839400 -1.157590
v -0.690000 -2.782600 -1.255971
v -0.690000 -2.740000 -1.329756
v -0.690000 -2.773634 -0.490500
v -0.690000 -2.712146 -0.526000
v -0.690000 -2.392410 -0.710600
v -0.690000 -2.294029 -0.767400
v -0.690000 -2.220244 -0.810000
v 0.690000 -3.450000 -0.100000
v 0.690000 -2.669000 -0.100000
v 0.690000 -2.773634 0.290500
v 0.690000 -2.598000 -0.100000
v 0.690000 -2.712146 0.326000
v 0.690000 -2.228800 -0.100000
v 0.690000 -2.392410 0.510600
v 0.690000 -2.115200 -0.100000
v 0.690000 -2.294029 0.567400
v 0.690000 -2.030000 -0.100000
v 0.690000 -2.220244 0.610000
v -0.590000 -2.220244 0.610000
v -0.590000 -2.030000 -0.100000
v 0.590000 -2.220244 0.610000
v 0.590000 -2.030000 -0.100000
v 0.690000 -3.059500 0.576366
v 0.690000 -3.024000 0.637854
v 0.690000 -2.839400 0.957590
v 0.690000 -2.782600 1.055971
v 0.690000 -2.740000 1.129756
v -0.590000 -2.740000 1.129756
v 0.590000 -2.740000 1.129756
v 0.690000 -3.450000 0.681000
v 0.690000 -3.450000 0.752000
v 0.690000 -3.450000 1.121200
v 0.690000 -3.450000 1.234800
v 0.690000 -3.450000 1.320000
v -0.590000 -3.450000 1.320000
v 0.590000 -3.450000 1.320000
v 0.690000 -3.840500 0.576366
v 0.690000 -3.876000 0.637854
v 0.690000 -4.060600 0.957590
v 0.690000 -4.117400 1.055971
v 0.690000 -4.160000 1.129756
v -0.590000 -4.160000 1.129756
v 0.590000 -4.160000 1.129756
v 0.690000 -4.126366 0.290500
v 0.690000 -4.187854 0.326000
v 0.690000 -4.507590 0.510600
v 0.690000 -4.605971 0.567400
v 0.690000 -4.679756 0.610000
v -0.590000 -4.679756 0.610000
v 0.590000 -4.679756 0.610000
v 0.690000 -4.231000 -0.100000
v 0.690000 -4.302000 -0.100000
v 0.690000 -4.671200 -0.100000
v 0.690000 -4.784800 -0.100000
v 0.690000 -4.870000 -0.100000
v -0.590000 -4.870000 -0.100000
v 0.590000 -4.870000 -0.100000
v 0.690000 -4.126366 -0.490500
v 0.690000 -4.187854 -0.526000
v 0.690000 -4.507590 -0.710600
v 0.690000 -4.605971 -0.767400
v 0.690000 -4.679756 -0.810000
v -0.590000 -4.679756 -0.810000
v 0.590000 -4.679756 -0.810000
v 0.690000 -3.840500 -0.776366
v 0.690000 -3.876000 -0.837854
v 0.690000 -4.060600 -1.157590
v 0.690000 -4.117400 -1.255971
v 0.690000 -4.160000 -1.329756
v -0.590000 -4.160000 -1.329756
v 0.590000 -4.160000 -1.329756
v 0.690000 -3.450000 -0.881000
v 0.690000 -3.450000 -0.952000
v 0.690000 -3.450000 -1.321200
v 0.690000 -3.450000 -1.434800
v 0.690000 -3.450000 -1.520000
v -0.590000 -3.450000 -1.520000
v 0.590000 -3.450000 -1.520000
v 0.690000 -3.059500 -0.776366
v 0.690000 -3.024000 -0.837854
v 0.690000 -2.839400 -1.157590
v 0.690000 -2.782600 -1.255971
v 0.690000 -2.740000 -1.329756
v -0.590000 -2.740000 -1.329756
v 0.590000 -2.740000 -1.329756
v 0.690000 -2.773634 -0.490500
v 0.690000 -2.712146 -0.526000
v 0.690000 -2.392410 -0.710600
v 0.690000 -2.294029 -0.767400
v 0.690000 -2.220244 -0.810000
v -0.590000 -2.220244 -0.810000
v 0.590000 -2.220244 -0.810000
v -0.760000 3.954945 0.367000
v -0.760000 4.064000 -0.040000
v -0.760000 3.250000 -0.040000
v -0.760000 4.019031 0.404000
v -0.760000 4.138000 -0.040000
v -0.760000 4.352277 0.596400
v -0.760000 4.522800 -0.040000
v -0.760000 4.454815 0.655600
v -0.760000 4.641200 -0.040000
v -0.760000 4.531718 0.700000
v -0.760000 4.730000 -0.040000
v -0.760000 3.657000 0.664945
v -0.760000 3.694000 0.729031
v -0.760000 3.886400 1.062277
v -0.760000 3.945600 1.164815
v -0.760000 3.990000 1.241718
v -0.760000 3.250000 0.774000
v -0.760000 3.250000 0.848000
v -0.760000 3.250000 1.232800
v -0.760000 3.250000 1.351200
v -0.760000 3.250000 1.440000
v -0.760000 2.843000 0.664945
v -0.760000 2.806000 0.729031
v -0.760000 2.613600 1.062277
v -0.760000 2.554400 1.164815
v -0.760000 2.510000 1.241718
v -0.760000 2.545055 0.367000
v -0.760000 2.480969 0.404000
v -0.760000 2.147723 0.596400
v -0.760000 2.045185 0.655600
v -0.760000 1.968282 0.700000
v -0.760000 2.436000 -0.040000
v -0.760000 2.362000 -0.040000
v -0.760000 1.977200 -0.040000
v -0.760000 1.858800 -0.040000
v -0.760000 1.770000 -0.040000
v -0.760000 2.545055 -0.447000
v -0.760000 2.480969 -0.484000
v -0.760000 2.147723 -0.676400
v -0.760000 2.045185 -0.735600
v -0.760000 1.968282 -0.780000
v -0.760000 2.843000 -0.744945
v -0.760000 2.806000 -0.809031
v -0.760000 2.613600 -1.142277
v -0.760000 2.554400 -1.244815
v -0.760000 2.510000 -1.321718
v -0.760000 3.250000 -0.854000
v -0.760000 3.250000 -0.928000
v -0.760000 3.250000 -1.312800
v -0.760000 3.250000 -1.431200
v -0.760000 3.250000 -1.520000
v -0.760000 3.657000 -0.744945
v -0.760000 3.694000 -0.809031
v -0.760000 3.886400 -1.142277
v -0.760000 3.945600 -1.244815
v -0.760000 3.990000 -1.321718
v -0.760000 3.954945 -0.447000
v -0.760000 4.019031 -0.484000
v -0.760000 4.352277 -0.676400
v -0.760000 4.454815 -0.735600
v -0.760000 4.531718 -0.780000
v 0.760000 3.250000 -0.040000
v 0.760000 4.064000 -0.040000
v 0.760000 3.954945 0.367000
v 0.760000 4.138000 -0.040000
v 0.760000 4.019031 0.404000
v 0.760000 4.522800 -0.040000
v 0.760000 4.352277 0.596400
v 0.760000 4.641200 -0.040000
v 0.760000 4.454815 0.655600
v 0.760000 4.730000 -0.040000
v 0.760000 4.531718 0.700000
v -0.660000 4.531718 0.700000
v -0.660000 4.730000 -0.040000
v 0.660000 4.531718 0.700000
v 0.660000 4.730000 -0.040000
v 0.760000 3.657000 0.664945
v 0.760000 3.694000 0.729031
v 0.760000 3.886400 1.062277
v 0.760000 3.945600 1.164815
v 0.760000 3.990000 1.241718
v -0.660000 3.990000 1.241718
v 0.660000 3.990000 1.241718
v 0.760000 3.250000 0.774000
v 0.760000 3.250000 0.848000
v 0.760000 3.250000 1.232800
v 0.760000 3.250000 1.351200
v 0.760000 3.250000 1.440000
v -0.660000 3.250000 1.440000
v 0.660000 3.250000 1.440000
v 0.760000 2.843000 0.664945
v 0.760000 2.806000 0.729031
v 0.760000 2.613600 1.062277
v 0.760000 2.554400 1.164815
v 0.760000 2.510000 1.241718
v -0.660000 2.510000 1.241718
v 0.660000 2.510000 1.241718
v 0.760000 2.545055 0.367000
v 0.760000 2.480969 0.404000
v 0.760000 2.147723 0.596400
v 0.760000 2.045185 0.655600
v 0.760000 1.968282 0.700000
v -0.660000 1.968282 0.700000
v 0.660000 1.968282 0.700000
v 0.760000 2.436000 -0.040000
v 0.760000 2.362000 -0.040000
v 0.760000 1.977200 -0.040000
v 0.760000 1.858800 -0.040000
v 0.760000 1.770000 -0.040000
v -0.660000 1.770000 -0.040000
v 0.660000 1.770000 -0.040000
v 0.760000 2.545055 -0.447000
v 0.760000 2.480969 -0.484000
v 0.760000 2.147723 -0.676400
v 0.760000 2.045185 -0.735600
v 0.760000 1.968282 -0.780000
v -0.660000 1.968282 -0.780000
v 0.660000 1.968282 -0.780000
v 0.760000 2.843000 -0.744945
v 0.760000 2.806000 -0.809031
v 0.760000 2.613600 -1.142277
v 0.760000 2.554400 -1.244815
v 0.760000 2.510000 -1.321718
v -0.660000 2.510000 -1.321718
v 0.660000 2.510000 -1.321718
v 0.760000 3.250000 -0.854000
v 0.760000 3.250000 -0.928000
v 0.760000 3.250000 -1.312800
v 0.760000 3.250000 -1.431200
v 0.760000 3.250000 -1.520000
v -0.660000 3.250000 -1.520000
v 0.660000 3.250000 -1.520000
v 0.760000 3.657000 -0.744945
v 0.760000 3.694000 -0.809031
v 0.760000 3.886400 -1.142277
v 0.760000 3.945600 -1.244815
v 0.760000 3.990000 -1.321718
v -0.660000 3.990000 -1.321718
v 0.660000 3.990000 -1.321718
v 0.760000 3.954945 -0.447000
v 0.760000 4.019031 -0.484000
v 0.760000 4.352277 -0.676400
v 0.760000 4.454815 -0.735600
v 0.760000 4.531718 -0.780000
v -0.660000 4.531718 -0.780000
v 0.660000 4.531718 -0.780000
v 0.000000 0.200000 -0.840000
v 0.509037 1.169846 -0.708222
v 0.587785 0.200000 -0.708222
v 0.293893 1.879822 -0.708222
v 0.000000 2.139691 -0.708222
v -0.293893 1.879822 -0.708222
v -0.509037 1.169846 -0.708222
v -0.587785 0.200000 -0.708222
v -0.509037 -0.769846 -0.708222
v -0.293893 -1.479822 -0.708222
v -0.000000 -1.739691 -0.708222
v 0.293893 -1.479822 -0.708222
v 0.509037 -0.769846 -0.708222
v 0.823639 1.769243 -0.363222
v 0.951057 0.200000 -0.363222
v 0.475528 2.918009 -0.363222
v 0.000000 3.338487 -0.363222
v -0.475528 2.918009 -0.363222
v -0.823639 1.769243 -0.363222
v -0.951057 0.200000 -0.363222
v -0.823639 -1.369243 -0.363222
v -0.475528 -2.518009 -0.363222
v -0.000000 -2.938487 -0.363222
v 0.475528 -2.518009 -0.363222
v 0.823639 -1.369243 -0.363222
v 0.823639 1.769243 0.063222
v 0.951057 0.200000 0.063222
v 0.475528 2.918009 0.063222
v 0.000000 3.338487 0.063222
v -0.475528 2.918009 0.063222
v -0.823639 1.769243 0.063222
v -0.951057 0.200000 0.063222
v -0.823639 -1.369243 0.063222
v -0.475528 -2.518009 0.063222
v -0.000000 -2.938487 0.063222
v 0.475528 -2.518009 0.063222
v 0.823639 -1.369243 0.063222
v 0.509037 1.169846 0.408222
v 0.587785 0.200000 0.408222
v 0.293893 1.879822 0.408222
v 0.000000 2.139691 0.408222
v -0.293893 1.879822 0.408222
v -0.509037 1.169846 0.408222
v -0.587785 0.200000 0.408222
v -0.509037 -0.769846 0.408222
v -0.293893 -1.479822 0.408222
v -0.000000 -1.739691 0.408222
v 0.293893 -1.479822 0.408222
v 0.509037 -0.769846 0.408222
v 0.000000 0.200000 0.540000
v 0.000000 -0.700000 -0.210000
v 0.361416 -0.097520 -0.082041
v 0.417328 -0.700000 -0.082041
v 0.208664 0.343526 -0.082041
v 0.000000 0.504960 -0.082041
v -0.208664 0.343526 -0.082041
v -0.361416 -0.097520 -0.082041
v -0.417328 -0.700000 -0.082041
v -0.361416 -1.302480 -0.082041
v -0.208664 -1.743526 -0.082041
v -0.000000 -1.904960 -0.082041
v 0.208664 -1.743526 -0.082041
v 0.361416 -1.302480 -0.082041
v 0.584784 0.274833 0.252959
v 0.675250 -0.700000 0.252959
v 0.337625 0.988460 0.252959
v 0.000000 1.249666 0.252959
v -0.337625 0.988460 0.252959
v -0.584784 0.274833 0.252959
v -0.675250 -0.700000 0.252959
v -0.584784 -1.674833 0.252959
v -0.337625 -2.388460 0.252959
v -0.000000 -2.649666 0.252959
v 0.337625 -2.388460 0.252959
v 0.584784 -1.674833 0.252959
v 0.584784 0.274833 0.667041
v 0.675250 -0.700000 0.667041
v 0.337625 0.988460 0.667041
v 0.000000 1.249666 0.667041
v -0.337625 0.988460 0.667041
v -0.584784 0.274833 0.667041
v -0.675250 -0.700000 0.667041
v -0.584784 -1.674833 0.667041
v -0.337625 -2.388460 0.667041
v -0.000000 -2.649666 0.667041
v 0.337625 -2.388460 0.667041
v 0.584784 -1.674833 0.667041
v 0.361416 -0.097520 1.002041
v 0.417328 -0.700000 1.002041
v 0.208664 0.343526 1.002041
v 0.000000 0.504960 1.002041
v -0.208664 0.343526 1.002041
v -0.361416 -0.097520 1.002041
v -0.417328 -0.700000 1.002041
v -0.361416 -1.302480 1.002041
v -0.208664 -1.743526 1.002041
v -0.000000 -1.904960 1.002041
v 0.208664 -1.743526 1.002041
v 0.361416 -1.302480 1.002041
v 0.000000 -0.700000 1.130000
v 0.000000 -1.350000 0.180000
v 0.254518 -1.009085 0.307959
v 0.293893 -1.350000 0.307959
v 0.146946 -0.759517 0.307959
v 0.000000 -0.668169 0.307959
v -0.146946 -0.759517 0.307959
v -0.254518 -1.009085 0.307959
v -0.293893 -1.350000 0.307959
v -0.254518 -1.690915 0.307959
v -0.146946 -1.940483 0.307959
v -0.000000 -2.031831 0.307959
v 0.146946 -1.940483 0.307959
v 0.254518 -1.690915 0.307959
v 0.411820 -0.798387 0.642959
v 0.475528 -1.350000 0.642959
v 0.237764 -0.394579 0.642959
v 0.000000 -0.246774 0.642959
v -0.237764 -0.394579 0.642959
v -0.411820 -0.798387 0.642959
v -0.475528 -1.350000 0.642959
v -0.411820 -1.901613 0.642959
v -0.237764 -2.305421 0.642959
v -0.000000 -2.453226 0.642959
v 0.237764 -2.305421 0.642959
v 0.411820 -1.901613 0.642959
v 0.411820 -0.798387 1.057041
v 0.475528 -1.350000 1.057041
v 0.237764 -0.394579 1.057041
v 0.000000 -0.246774 1.057041
v -0.237764 -0.394579 1.057041
v -0.411820 -0.798387 1.057041
v -0.475528 -1.350000 1.057041
v -0.411820 -1.901613 1.057041
v -0.237764 -2.305421 1.057041
v -0.000000 -2.453226 1.057041
v 0.237764 -2.305421 1.057041
v 0.411820 -1.901613 1.057041
v 0.254518 -1.009085 1.392041
v 0.293893 -1.350000 1.392041
v 0.146946 -0.759517 1.392041
v 0.000000 -0.668169 1.392041
v -0.146946 -0.759517 1.392041
v -0.254518 -1.009085 1.392041
v -0.293893 -1.350000 1.392041
v -0.254518 -1.690915 1.392041
v -0.146946 -1.940483 1.392041
v -0.000000 -2.031831 1.392041
v 0.146946 -1.940483 1.392041
v 0.254518 -1.690915 1.392041
v 0.000000 -1.350000 1.520000
v -0.925000 0.200000 -0.155000
v -0.898483 1.632951 -0.130104
v -0.871967 0.200000 -0.130104
v -0.951517 1.632951 -0.130104
v -0.978033 0.200000 -0.130104
v -0.951517 -1.232951 -0.130104
v -0.898483 -1.232951 -0.130104
v -0.887500 2.226499 -0.070000
v -0.850000 0.200000 -0.070000
v -0.962500 2.226499 -0.070000
v -1.000000 0.200000 -0.070000
v -0.962500 -1.826499 -0.070000
v -0.887500 -1.826499 -0.070000
v -0.898483 1.632951 -0.009896
v -0.871967 0.200000 -0.009896
v -0.951517 1.632951 -0.009896
v -0.978033 0.200000 -0.009896
v -0.951517 -1.232951 -0.009896
v -0.898483 -1.232951 -0.009896
v -0.925000 0.200000 0.015000
v 0.925000 0.200000 -0.155000
v 0.951517 1.632951 -0.130104
v 0.978033 0.200000 -0.130104
v 0.898483 1.632951 -0.130104
v 0.871967 0.200000 -0.130104
v 0.898483 -1.232951 -0.130104
v 0.951517 -1.232951 -0.130104
v 0.962500 2.226499 -0.070000
v 1.000000 0.200000 -0.070000
v 0.887500 2.226499 -0.070000
v 0.850000 0.200000 -0.070000
v 0.887500 -1.826499 -0.070000
v 0.962500 -1.826499 -0.070000
v 0.951517 1.632951 -0.009896
v 0.978033 0.200000 -0.009896
v 0.898483 1.632951 -0.009896
v 0.871967 0.200000 -0.009896
v 0.898483 -1.232951 -0.009896
v 0.951517 -1.232951 -0.009896
v 0.925000 0.200000 0.015000
v 0.000000 -1.140000 1.490000
v 0.015910 -0.625607 1.494393
v 0.031820 -1.140000 1.494393
v -0.015910 -0.625607 1.494393
v -0.031820 -1.140000 1.494393
v -0.015910 -1.654393 1.494393
v 0.015910 -1.654393 1.494393
v 0.022500 -0.412539 1.505000
v 0.045000 -1.140000 1.505000
v -0.022500 -0.412539 1.505000
v -0.045000 -1.140000 1.505000
v -0.022500 -1.867461 1.505000
v 0.022500 -1.867461 1.505000
v 0.015910 -0.625607 1.515607
v 0.031820 -1.140000 1.515607
v -0.015910 -0.625607 1.515607
v -0.031820 -1.140000 1.515607
v -0.015910 -1.654393 1.515607
v 0.015910 -1.654393 1.515607
v 0.000000 -1.140000 1.520000
vn -1.000000 0.000000 -0.000000
vn 1.000000 0.000000 0.000000
vn 0.000000 0.965926 0.258819
vn 0.000000 0.707107 0.707107
vn 0.000000 0.258819 0.965926
vn 0.000000 -0.258819 0.965926
vn 0.000000 -0.707107 0.707107
vn 0.000000 -0.965926 0.258819
vn 0.000000 -0.965926 -0.258819
vn 0.000000 -0.707107 -0.707107
vn 0.000000 -0.258819 -0.965926
vn 0.000000 0.258819 -0.965926
vn 0.000000 0.707107 -0.707107
vn 0.000000 0.965926 -0.258819
vn 0.218730 0.017760 -0.975624
vn 0.161760 0.049018 -0.985612
vn 0.059827 0.067660 -0.995913
vn -0.059827 0.067660 -0.995913
vn -0.161760 0.049018 -0.985612
vn -0.218730 0.017760 -0.975624
vn -0.218730 -0.017760 -0.975624
vn -0.161760 -0.049018 -0.985612
vn -0.059827 -0.067660 -0.995913
vn 0.059827 -0.067660 -0.995913
vn 0.161760 -0.049018 -0.985612
vn 0.218730 -0.017760 -0.975624
vn 0.687562 0.055828 -0.723976
vn 0.562478 0.170448 -0.809052
vn 0.237547 0.268648 -0.933488
vn -0.237547 0.268648 -0.933488
vn -0.562478 0.170448 -0.809052
vn -0.687562 0.055828 -0.723976
vn -0.687562 -0.055828 -0.723976
vn -0.562478 -0.170448 -0.809052
vn -0.237547 -0.268648 -0.933488
vn 0.237547 -0.268648 -0.933488
vn 0.562478 -0.170448 -0.809052
vn 0.687562 -0.055828 -0.723976
vn 0.996720 0.080930 0.000000
vn 0.957024 0.290007 0.000000
vn 0.662413 0.749139 0.000000
vn -0.662413 0.749139 0.000000
vn -0.957024 0.290007 0.000000
vn -0.996720 0.080930 0.000000
vn -0.996720 -0.080930 0.000000
vn -0.957024 -0.290007 0.000000
vn -0.662413 -0.749139 0.000000
vn 0.662413 -0.749139 0.000000
vn 0.957024 -0.290007 0.000000
vn 0.996720 -0.080930 0.000000
vn 0.687562 0.055828 0.723976
vn 0.562478 0.170448 0.809052
vn 0.237547 0.268648 0.933488
vn -0.237547 0.268648 0.933488
vn -0.562478 0.170448 0.809052
vn -0.687562 0.055828 0.723976
vn -0.687562 -0.055828 0.723976
vn -0.562478 -0.170448 0.809052
vn -0.237547 -0.268648 0.933488
vn 0.237547 -0.268648 0.933488
vn 0.562478 -0.170448 0.809052
vn 0.687562 -0.055828 0.723976
vn 0.218730 0.017760 0.975624
vn 0.161760 0.049018 0.985612
vn 0.059827 0.067660 0.995913
vn -0.059827 0.067660 0.995913
vn -0.161760 0.049018 0.985612
vn -0.218730 0.017760 0.975624
vn -0.218730 -0.017760 0.975624
vn -0.161760 -0.049018 0.985612
vn -0.059827 -0.067660 0.995913
vn 0.059827 -0.067660 0.995913
vn 0.161760 -0.049018 0.985612
vn 0.218730 -0.017760 0.975624
vn 0.293036 0.027194 -0.955715
vn 0.218381 0.075634 -0.972928
vn 0.081426 0.105249 -0.991107
vn -0.081426 0.105249 -0.991107
vn -0.218381 0.075634 -0.972928
vn -0.293036 0.027194 -0.955715
vn -0.293036 -0.027194 -0.955715
vn -0.218381 -0.075634 -0.972928
vn -0.081426 -0.105249 -0.991107
vn 0.081426 -0.105249 -0.991107
vn 0.218381 -0.075634 -0.972928
vn 0.293036 -0.027194 -0.955715
vn 0.790227 0.073335 -0.608410
vn 0.670238 0.232131 -0.704908
vn 0.302517 0.391022 -0.869244
vn -0.302517 0.391022 -0.869244
vn -0.670238 0.232131 -0.704908
vn -0.790227 0.073335 -0.608410
vn -0.790227 -0.073335 -0.608410
vn -0.670238 -0.232131 -0.704908
vn -0.302517 -0.391022 -0.869244
vn 0.302517 -0.391022 -0.869244
vn 0.670238 -0.232131 -0.704908
vn 0.790227 -0.073335 -0.608410
vn 0.995722 0.092405 0.000000
vn 0.944931 0.327269 0.000000
vn 0.611907 0.790929 0.000000
vn -0.611907 0.790929 0.000000
vn -0.944931 0.327269 0.000000
vn -0.995722 0.092405 0.000000
vn -0.995722 -0.092405 0.000000
vn -0.944931 -0.327269 0.000000
vn -0.611907 -0.790929 0.000000
vn 0.611907 -0.790929 0.000000
vn 0.944931 -0.327269 0.000000
vn 0.995722 -0.092405 0.000000
vn 0.790227 0.073335 0.608410
vn 0.670238 0.232131 0.704908
vn 0.302517 0.391022 0.869244
vn -0.302517 0.391022 0.869244
vn -0.670238 0.232131 0.704908
vn -0.790227 0.073335 0.608410
vn -0.790227 -0.073335 0.608410
vn -0.670238 -0.232131 0.704908
vn -0.302517 -0.391022 0.869244
vn 0.302517 -0.391022 0.869244
vn 0.670238 -0.232131 0.704908
vn 0.790227 -0.073335 0.608410
vn 0.293036 0.027194 0.955715
vn 0.218381 0.075634 0.972928
vn 0.081426 0.105249 0.991107
vn -0.081426 0.105249 0.991107
vn -0.218381 0.075634 0.972928
vn -0.293036 0.027194 0.955715
vn -0.293036 -0.027194 0.955715
vn -0.218381 -0.075634 0.972928
vn -0.081426 -0.105249 0.991107
vn 0.081426 -0.105249 0.991107
vn 0.218381 -0.075634 0.972928
vn 0.293036 -0.027194 0.955715
vn 0.398773 0.046056 -0.915893
vn 0.301109 0.129788 -0.944716
vn 0.113915 0.183248 -0.976444
vn -0.113915 0.183248 -0.976444
vn -0.301109 0.129788 -0.944716
vn -0.398773 0.046056 -0.915893
vn -0.398773 -0.046056 -0.915893
vn -0.301109 -0.129788 -0.944716
vn -0.113915 -0.183248 -0.976444
vn 0.113915 -0.183248 -0.976444
vn 0.301109 -0.129788 -0.944716
vn 0.398773 -0.046056 -0.915893
vn 0.874601 0.101012 -0.474205
vn 0.759330 0.327297 -0.562400
vn 0.360790 0.580382 -0.730060
vn -0.360790 0.580382 -0.730060
vn -0.759330 0.327297 -0.562400
vn -0.874601 0.101012 -0.474205
vn -0.874601 -0.101012 -0.474205
vn -0.759330 -0.327297 -0.562400
vn -0.360790 -0.580382 -0.730060
vn 0.360790 -0.580382 -0.730060
vn 0.759330 -0.327297 -0.562400
vn 0.874601 -0.101012 -0.474205
vn 0.993396 0.114733 0.000000
vn 0.918324 0.395829 0.000000
vn 0.527947 0.849278 0.000000
vn -0.527947 0.849278 0.000000
vn -0.918324 0.395829 0.000000
vn -0.993396 0.114733 0.000000
vn -0.993396 -0.114733 0.000000
vn -0.918324 -0.395829 0.000000
vn -0.527947 -0.849278 0.000000
vn 0.527947 -0.849278 0.000000
vn 0.918324 -0.395829 0.000000
vn 0.993396 -0.114733 0.000000
vn 0.874601 0.101012 0.474205
vn 0.759330 0.327297 0.562400
vn 0.360790 0.580382 0.730060
vn -0.360790 0.580382 0.730060
vn -0.759330 0.327297 0.562400
vn -0.874601 0.101012 0.474205
vn -0.874601 -0.101012 0.474205
vn -0.759330 -0.327297 0.562400
vn -0.360790 -0.580382 0.730060
vn 0.360790 -0.580382 0.730060
vn 0.759330 -0.327297 0.562400
vn 0.874601 -0.101012 0.474205
vn 0.398773 0.046056 0.915893
vn 0.301109 0.129788 0.944716
vn 0.113915 0.183248 0.976444
vn -0.113915 0.183248 0.976444
vn -0.301109 0.129788 0.944716
vn -0.398773 0.046056 0.915893
vn -0.398773 -0.046056 0.915893
vn -0.301109 -0.129788 0.944716
vn -0.113915 -0.183248 0.976444
vn 0.113915 -0.183248 0.976444
vn 0.301109 -0.129788 0.944716
vn 0.398773 -0.046056 0.915893
vn 0.424934 0.007863 -0.905190
vn 0.000000 0.017371 -0.999849
vn -0.424934 0.007863 -0.905190
vn -0.424934 -0.007863 -0.905190
vn -0.000000 -0.017371 -0.999849
vn 0.424934 -0.007863 -0.905190
vn 0.939093 0.017378 -0.343222
vn 0.000000 0.100747 -0.994912
vn -0.939093 0.017378 -0.343222
vn -0.939093 -0.017378 -0.343222
vn -0.000000 -0.100747 -0.994912
vn 0.939093 -0.017378 -0.343222
vn 0.939093 0.017378 0.343222
vn 0.000000 0.100747 0.994912
vn -0.939093 0.017378 0.343222
vn -0.939093 -0.017378 0.343222
vn -0.000000 -0.100747 0.994912
vn 0.939093 -0.017378 0.343222
vn 0.424934 0.007863 0.905190
vn 0.000000 0.017371 0.999849
vn -0.424934 0.007863 0.905190
vn -0.424934 -0.007863 0.905190
vn -0.000000 -0.017371 0.999849
vn 0.424934 -0.007863 0.905190
vn 0.136772 0.004230 -0.990593
vn 0.000000 0.008541 -0.999964
vn -0.136772 0.004230 -0.990593
vn -0.136772 -0.004230 -0.990593
vn -0.000000 -0.008541 -0.999964
vn 0.136772 -0.004230 -0.990593
vn 0.626825 0.019387 -0.778919
vn 0.000000 0.049719 -0.998763
vn -0.626825 0.019387 -0.778919
vn -0.626825 -0.019387 -0.778919
vn -0.000000 -0.049719 -0.998763
vn 0.626825 -0.019387 -0.778919
vn 0.626825 0.019387 0.778919
vn 0.000000 0.049719 0.998763
vn -0.626825 0.019387 0.778919
vn -0.626825 -0.019387 0.778919
vn -0.000000 -0.049719 0.998763
vn 0.626825 -0.019387 0.778919
vn 0.136772 0.004230 0.990593
vn 0.000000 0.008541 0.999964
vn -0.136772 0.004230 0.990593
vn -0.136772 -0.004230 0.990593
vn -0.000000 -0.008541 0.999964
vn 0.136772 -0.004230 0.990593
usemtl Armor
f 1//1 2//1 3//1
f 4//1 6//1 7//1
f 4//1 7//1 5//1
f 8//1 10//1 11//1
f 8//1 11//1 9//1
f 12//1 1//1 3//1
f 13//1 14//1 6//1
f 13//1 6//1 4//1
f 15//1 16//1 10//1
f 15//1 10//1 8//1
f 17//1 12//1 3//1
f 18//1 19//1 14//1
f 18//1 14//1 13//1
f 20//1 21//1 16//1
f 20//1 16//1 15//1
f 22//1 17//1 3//1
f 23//1 24//1 19//1
f 23//1 19//1 18//1
f 25//1 26//1 21//1
f 25//1 21//1 20//1
f 27//1 22//1 3//1
f 28//1 29//1 24//1
f 28//1 24//1 23//1
f 30//1 31//1 26//1
f 30//1 26//1 25//1
f 32//1 27//1 3//1
f 33//1 34//1 29//1
f 33//1 29//1 28//1
f 35//1 36//1 31//1
f 35//1 31//1 30//1
f 37//1 32//1 3//1
f 38//1 39//1 34//1
f 38//1 34//1 33//1
f 40//1 41//1 36//1
f 40//1 36//1 35//1
f 42//1 37//1 3//1
f 43//1 44//1 39//1
f 43//1 39//1 38//1
f 45//1 46//1 41//1
f 45//1 41//1 40//1
f 47//1 42//1 3//1
f 48//1 49//1 44//1
f 48//1 44//1 43//1
f 50//1 51//1 46//1
f 50//1 46//1 45//1
f 52//1 47//1 3//1
f 53//1 54//1 49//1
f 53//1 49//1 48//1
f 55//1 56//1 51//1
f 55//1 51//1 50//1
f 57//1 52//1 3//1
f 58//1 59//1 54//1
f 58//1 54//1 53//1
f 60//1 61//1 56//1
f 60//1 56//1 55//1
f 2//1 57//1 3//1
f 5//1 7//1 59//1
f 5//1 59//1 58//1
f 9//1 11//1 61//1
f 9//1 61//1 60//1
f 62//2 63//2 64//2
f 65//2 67//2 68//2
f 65//2 68//2 66//2
f 69//2 71//2 72//2
f 69//2 72//2 70//2
f 62//2 64//2 77//2
f 66//2 68//2 79//2
f 66//2 79//2 78//2
f 70//2 72//2 81//2
f 70//2 81//2 80//2
f 62//2 77//2 84//2
f 78//2 79//2 86//2
f 78//2 86//2 85//2
f 80//2 81//2 88//2
f 80//2 88//2 87//2
f 62//2 84//2 91//2
f 85//2 86//2 93//2
f 85//2 93//2 92//2
f 87//2 88//2 95//2
f 87//2 95//2 94//2
f 62//2 91//2 98//2
f 92//2 93//2 100//2
f 92//2 100//2 99//2
f 94//2 95//2 102//2
f 94//2 102//2 101//2
f 62//2 98//2 105//2
f 99//2 100//2 107//2
f 99//2 107//2 106//2
f 101//2 102//2 109//2
f 101//2 109//2 108//2
f 62//2 105//2 112//2
f 106//2 107//2 114//2
f 106//2 114//2 113//2
f 108//2 109//2 116//2
f 108//2 116//2 115//2
f 62//2 112//2 119//2
f 113//2 114//2 121//2
f 113//2 121//2 120//2
f 115//2 116//2 123//2
f 115//2 123//2 122//2
f 62//2 119//2 126//2
f 120//2 121//2 128//2
f 120//2 128//2 127//2
f 122//2 123//2 130//2
f 122//2 130//2 129//2
f 62//2 126//2 133//2
f 127//2 128//2 135//2
f 127//2 135//2 134//2
f 129//2 130//2 137//2
f 129//2 137//2 136//2
f 62//2 133//2 140//2
f 134//2 135//2 142//2
f 134//2 142//2 141//2
f 136//2 137//2 144//2
f 136//2 144//2 143//2
f 62//2 140//2 63//2
f 141//2 142//2 67//2
f 141//2 67//2 65//2
f 143//2 144//2 71//2
f 143//2 71//2 69//2
f 147//1 148//1 149//1
f 150//1 152//1 153//1
f 150//1 153//1 151//1
f 154//1 156//1 157//1
f 154//1 157//1 155//1
f 158//1 147//1 149//1
f 159//1 160//1 152//1
f 159//1 152//1 150//1
f 161//1 162//1 156//1
f 161//1 156//1 154//1
f 163//1 158//1 149//1
f 164//1 165//1 160//1
f 164//1 160//1 159//1
f 166//1 167//1 162//1
f 166//1 162//1 161//1
f 168//1 163//1 149//1
f 169//1 170//1 165//1
f 169//1 165//1 164//1
f 171//1 172//1 167//1
f 171//1 167//1 166//1
f 173//1 168//1 149//1
f 174//1 175//1 170//1
f 174//1 170//1 169//1
f 176//1 177//1 172//1
f 176//1 172//1 171//1
f 178//1 173//1 149//1
f 179//1 180//1 175//1
f 179//1 175//1 174//1
f 181//1 182//1 177//1
f 181//1 177//1 176//1
f 183//1 178//1 149//1
f 184//1 185//1 180//1
f 184//1 180//1 179//1
f 186//1 187//1 182//1
f 186//1 182//1 181//1
f 188//1 183//1 149//1
f 189//1 190//1 185//1
f 189//1 185//1 184//1
f 191//1 192//1 187//1
f 191//1 187//1 186//1
f 193//1 188//1 149//1
f 194//1 195//1 190//1
f 194//1 190//1 189//1
f 196//1 197//1 192//1
f 196//1 192//1 191//1
f 198//1 193//1 149//1
f 199//1 200//1 195//1
f 199//1 195//1 194//1
f 201//1 202//1 197//1
f 201//1 197//1 196//1
f 203//1 198//1 149//1
f 204//1 205//1 200//1
f 204//1 200//1 199//1
f 206//1 207//1 202//1
f 206//1 202//1 201//1
f 148//1 203//1 149//1
f 151//1 153//1 205//1
f 151//1 205//1 204//1
f 155//1 157//1 207//1
f 155//1 207//1 206//1
f 208//2 209//2 210//2
f 211//2 213//2 214//2
f 211//2 214//2 212//2
f 215//2 217//2 218//2
f 215//2 218//2 216//2
f 208//2 210//2 223//2
f 212//2 214//2 225//2
f 212//2 225//2 224//2
f 216//2 218//2 227//2
f 216//2 227//2 226//2
f 208//2 223//2 230//2
f 224//2 225//2 232//2
f 224//2 232//2 231//2
f 226//2 227//2 234//2
f 226//2 234//2 233//2
f 208//2 230//2 237//2
f 231//2 232//2 239//2
f 231//2 239//2 238//2
f 233//2 234//2 241//2
f 233//2 241//2 240//2
f 208//2 237//2 244//2
f 238//2 239//2 246//2
f 238//2 246//2 245//2
f 240//2 241//2 248//2
f 240//2 248//2 247//2
f 208//2 244//2 251//2
f 245//2 246//2 253//2
f 245//2 253//2 252//2
f 247//2 248//2 255//2
f 247//2 255//2 254//2
f 208//2 251//2 258//2
f 252//2 253//2 260//2
f 252//2 260//2 259//2
f 254//2 255//2 262//2
f 254//2 262//2 261//2
f 208//2 258//2 265//2
f 259//2 260//2 267//2
f 259//2 267//2 266//2
f 261//2 262//2 269//2
f 261//2 269//2 268//2
f 208//2 265//2 272//2
f 266//2 267//2 274//2
f 266//2 274//2 273//2
f 268//2 269//2 276//2
f 268//2 276//2 275//2
f 208//2 272//2 279//2
f 273//2 274//2 281//2
f 273//2 281//2 280//2
f 275//2 276//2 283//2
f 275//2 283//2 282//2
f 208//2 279//2 286//2
f 280//2 281//2 288//2
f 280//2 288//2 287//2
f 282//2 283//2 290//2
f 282//2 290//2 289//2
f 208//2 286//2 209//2
f 287//2 288//2 213//2
f 287//2 213//2 211//2
f 289//2 290//2 217//2
f 289//2 217//2 215//2
f 293//15 294//15 295//15
f 293//16 296//16 294//16
f 293//17 297//17 296//17
f 293//18 298//18 297//18
f 293//19 299//19 298//19
f 293//20 300//20 299//20
f 293//21 301//21 300//21
f 293//22 302//22 301//22
f 293//23 303//23 302//23
f 293//24 304//24 303//24
f 293//25 305//25 304//25
f 293//26 295//26 305//26
f 295//27 294//27 306//27
f 295//27 306//27 307//27
f 294//28 296//28 308//28
f 294//28 308//28 306//28
f 296//29 297//29 309//29
f 296//29 309//29 308//29
f 297//30 298//30 310//30
f 297//30 310//30 309//30
f 298//31 299//31 311//31
f 298//31 311//31 310//31
f 299//32 300//32 312//32
f 299//32 312//32 311//32
f 300//33 301//33 313//33
f 300//33 313//33 312//33
f 301//34 302//34 314//34
f 301//34 314//34 313//34
f 302//35 303//35 315//35
f 302//35 315//35 314//35
f 303//36 304//36 316//36
f 303//36 316//36 315//36
f 304//37 305//37 317//37
f 304//37 317//37 316//37
f 305//38 295//38 307//38
f 305//38 307//38 317//38
f 307//39 306//39 318//39
f 307//39 318//39 319//39
f 306//40 308//40 320//40
f 306//40 320//40 318//40
f 308//41 309//41 321//41
f 308//41 321//41 320//41
f 309//42 310//42 322//42
f 309//42 322//42 321//42
f 310//43 311//43 323//43
f 310//43 323//43 322//43
f 311//44 312//44 324//44
f 311//44 324//44 323//44
f 312//45 313//45 325//45
f 312//45 325//45 324//45
f 313//46 314//46 326//46
f 313//46 326//46 325//46
f 314//47 315//47 327//47
f 314//47 327//47 326//47
f 315//48 316//48 328//48
f 315//48 328//48 327//48
f 316//49 317//49 329//49
f 316//49 329//49 328//49
f 317//50 307//50 319//50
f 317//50 319//50 329//50
f 319//51 318//51 330//51
f 319//51 330//51 331//51
f 318//52 320//52 332//52
f 318//52 332//52 330//52
f 320//53 321//53 333//53
f 320//53 333//53 332//53
f 321//54 322//54 334//54
f 321//54 334//54 333//54
f 322//55 323//55 335//55
f 322//55 335//55 334//55
f 323//56 324//56 336//56
f 323//56 336//56 335//56
f 324//57 325//57 337//57
f 324//57 337//57 336//57
f 325//58 326//58 338//58
f 325//58 338//58 337//58
f 326//59 327//59 339//59
f 326//59 339//59 338//59
f 327//60 328//60 340//60
f 327//60 340//60 339//60
f 328//61 329//61 341//61
f 328//61 341//61 340//61
f 329//62 319//62 331//62
f 329//62 331//62 341//62
f 331//63 330//63 342//63
f 330//64 332//64 342//64
f 332//65 333//65 342//65
f 333//66 334//66 342//66
f 334//67 335//67 342//67
f 335//68 336//68 342//68
f 336//69 337//69 342//69
f 337//70 338//70 342//70
f 338//71 339//71 342//71
f 339//72 340//72 342//72
f 340//73 341//73 342//73
f 341//74 331//74 342//74
f 343//75 344//75 345//75
f 343//76 346//76 344//76
f 343//77 347//77 346//77
f 343//78 348//78 347//78
f 343//79 349//79 348//79
f 343//80 350//80 349//80
f 343//81 351//81 350//81
f 343//82 352//82 351//82
f 343//83 353//83 352//83
f 343//84 354//84 353//84
f 343//85 355//85 354//85
f 343//86 345//86 355//86
f 345//87 344//87 356//87
f 345//87 356//87 357//87
f 344//88 346//88 358//88
f 344//88 358//88 356//88
f 346//89 347//89 359//89
f 346//89 359//89 358//89
f 347//90 348//90 360//90
f 347//90 360//90 359//90
f 348//91 349//91 361//91
f 348//91 361//91 360//91
f 349//92 350//92 362//92
f 349//92 362//92 361//92
f 350//93 351//93 363//93
f 350//93 363//93 362//93
f 351//94 352//94 364//94
f 351//94 364//94 363//94
f 352//95 353//95 365//95
f 352//95 365//95 364//95
f 353//96 354//96 366//96
f 353//96 366//96 365//96
f 354//97 355//97 367//97
f 354//97 367//97 366//97
f 355//98 345//98 357//98
f 355//98 357//98 367//98
f 357//99 356//99 368//99
f 357//99 368//99 369//99
f 356//100 358//100 370//100
f 356//100 370//100 368//100
f 358//101 359//101 371//101
f 358//101 371//101 370//101
f 359//102 360//102 372//102
f 359//102 372//102 371//102
f 360//103 361//103 373//103
f 360//103 373//103 372//103
f 361//104 362//104 374//104
f 361//104 374//104 373//104
f 362//105 363//105 375//105
f 362//105 375//105 374//105
f 363//106 364//106 376//106
f 363//106 376//106 375//106
f 364//107 365//107 377//107
f 364//107 377//107 376//107
f 365//108 366//108 378//108
f 365//108 378//108 377//108
f 366//109 367//109 379//109
f 366//109 379//109 378//109
f 367//110 357//110 369//110
f 367//110 369//110 379//110
f 369//111 368//111 380//111
f 369//111 380//111 381//111
f 368//112 370//112 382//112
f 368//112 382//112 380//112
f 370//113 371//113 383//113
f 370//113 383//113 382//113
f 371//114 372//114 384//114
f 371//114 384//114 383//114
f 372//115 373//115 385//115
f 372//115 385//115 384//115
f 373//116 374//116 386//116
f 373//116 386//116 385//116
f 374//117 375//117 387//117
f 374//117 387//117 386//117
f 375//118 376//118 388//118
f 375//118 388//118 387//118
f 376//119 377//119 389//119
f 376//119 389//119 388//119
f 377//120 378//120 390//120
f 377//120 390//120 389//120
f 378//121 379//121 391//121
f 378//121 391//121 390//121
f 379//122 369//122 381//122
f 379//122 381//122 391//122
f 381//123 380//123 392//123
f 380//124 382//124 392//124
f 382//125 383//125 392//125
f 383//126 384//126 392//126
f 384//127 385//127 392//127
f 385//128 386//128 392//128
f 386//129 387//129 392//129
f 387//130 388//130 392//130
f 388//131 389//131 392//131
f 389//132 390//132 392//132
f 390//133 391//133 392//133
f 391//134 381//134 392//134
usemtl Glass
f 393//135 394//135 395//135
f 393//136 396//136 394//136
f 393//137 397//137 396//137
f 393//138 398//138 397//138
f 393//139 399//139 398//139
f 393//140 400//140 399//140
f 393//141 401//141 400//141
f 393//142 402//142 401//142
f 393//143 403//143 402//143
f 393//144 404//144 403//144
f 393//145 405//145 404//145
f 393//146 395//146 405//146
f 395//147 394//147 406//147
f 395//147 406//147 407//147
f 394//148 396//148 408//148
f 394//148 408//148 406//148
f 396//149 397//149 409//149
f 396//149 409//149 408//149
f 397//150 398//150 410//150
f 397//150 410//150 409//150
f 398//151 399//151 411//151
f 398//151 411//151 410//151
f 399//152 400//152 412//152
f 399//152 412//152 411//152
f 400//153 401//153 413//153
f 400//153 413//153 412//153
f 401//154 402//154 414//154
f 401//154 414//154 413//154
f 402//155 403//155 415//155
f 402//155 415//155 414//155
f 403//156 404//156 416//156
f 403//156 416//156 415//156
f 404//157 405//157 417//157
f 404//157 417//157 416//157
f 405//158 395//158 407//158
f 405//158 407//158 417//158
f 407//159 406//159 418//159
f 407//159 418//159 419//159
f 406//160 408//160 420//160
f 406//160 420//160 418//160
f 408//161 409//161 421//161
f 408//161 421//161 420//161
f 409//162 410//162 422//162
f 409//162 422//162 421//162
f 410//163 411//163 423//163
f 410//163 423//163 422//163
f 411//164 412//164 424//164
f 411//164 424//164 423//164
f 412//165 413//165 425//165
f 412//165 425//165 424//165
f 413//166 414//166 426//166
f 413//166 426//166 425//166
f 414//167 415//167 427//167
f 414//167 427//167 426//167
f 415//168 416//168 428//168
f 415//168 428//168 427//168
f 416//169 417//169 429//169
f 416//169 429//169 428//169
f 417//170 407//170 419//170
f 417//170 419//170 429//170
f 419//171 418//171 430//171
f 419//171 430//171 431//171
f 418//172 420//172 432//172
f 418//172 432//172 430//172
f 420//173 421//173 433//173
f 420//173 433//173 432//173
f 421//174 422//174 434//174
f 421//174 434//174 433//174
f 422//175 423//175 435//175
f 422//175 435//175 434//175
f 423//176 424//176 436//176
f 423//176 436//176 435//176
f 424//177 425//177 437//177
f 424//177 437//177 436//177
f 425//178 426//178 438//178
f 425//178 438//178 437//178
f 426//179 427//179 439//179
f 426//179 439//179 438//179
f 427//180 428//180 440//180
f 427//180 440//180 439//180
f 428//181 429//181 441//181
f 428//181 441//181 440//181
f 429//182 419//182 431//182
f 429//182 431//182 441//182
f 431//183 430//183 442//183
f 430//184 432//184 442//184
f 432//185 433//185 442//185
f 433//186 434//186 442//186
f 434//187 435//187 442//187
f 435//188 436//188 442//188
f 436//189 437//189 442//189
f 437//190 438//190 442//190
f 438//191 439//191 442//191
f 439//192 440//192 442//192
f 440//193 441//193 442//193
f 441//194 431//194 442//194
usemtl Hull
f 1//1 4//1 5//1
f 1//1 5//1 2//1
f 6//1 8//1 9//1
f 6//1 9//1 7//1
f 12//1 13//1 4//1
f 12//1 4//1 1//1
f 14//1 15//1 8//1
f 14//1 8//1 6//1
f 17//1 18//1 13//1
f 17//1 13//1 12//1
f 19//1 20//1 15//1
f 19//1 15//1 14//1
f 22//1 23//1 18//1
f 22//1 18//1 17//1
f 24//1 25//1 20//1
f 24//1 20//1 19//1
f 27//1 28//1 23//1
f 27//1 23//1 22//1
f 29//1 30//1 25//1
f 29//1 25//1 24//1
f 32//1 33//1 28//1
f 32//1 28//1 27//1
f 34//1 35//1 30//1
f 34//1 30//1 29//1
f 37//1 38//1 33//1
f 37//1 33//1 32//1
f 39//1 40//1 35//1
f 39//1 35//1 34//1
f 42//1 43//1 38//1
f 42//1 38//1 37//1
f 44//1 45//1 40//1
f 44//1 40//1 39//1
f 47//1 48//1 43//1
f 47//1 43//1 42//1
f 49//1 50//1 45//1
f 49//1 45//1 44//1
f 52//1 53//1 48//1
f 52//1 48//1 47//1
f 54//1 55//1 50//1
f 54//1 50//1 49//1
f 57//1 58//1 53//1
f 57//1 53//1 52//1
f 59//1 60//1 55//1
f 59//1 55//1 54//1
f 2//1 5//1 58//1
f 2//1 58//1 57//1
f 7//1 9//1 60//1
f 7//1 60//1 59//1
f 63//2 65//2 66//2
f 63//2 66//2 64//2
f 67//2 69//2 70//2
f 67//2 70//2 68//2
f 11//3 10//3 73//3
f 11//3 73//3 74//3
f 76//3 75//3 72//3
f 76//3 72//3 71//3
f 64//2 66//2 78//2
f 64//2 78//2 77//2
f 68//2 70//2 80//2
f 68//2 80//2 79//2
f 10//4 16//4 82//4
f 10//4 82//4 73//4
f 75//4 83//4 81//4
f 75//4 81//4 72//4
f 77//2 78//2 85//2
f 77//2 85//2 84//2
f 79//2 80//2 87//2
f 79//2 87//2 86//2
f 16//5 21//5 89//5
f 16//5 89//5 82//5
f 83//5 90//5 88//5
f 83//5 88//5 81//5
f 84//2 85//2 92//2
f 84//2 92//2 91//2
f 86//2 87//2 94//2
f 86//2 94//2 93//2
f 21//6 26//6 96//6
f 21//6 96//6 89//6
f 90//6 97//6 95//6
f 90//6 95//6 88//6
f 91//2 92//2 99//2
f 91//2 99//2 98//2
f 93//2 94//2 101//2
f 93//2 101//2 100//2
f 26//7 31//7 103//7
f 26//7 103//7 96//7
f 97//7 104//7 102//7
f 97//7 102//7 95//7
f 98//2 99//2 106//2
f 98//2 106//2 105//2
f 100//2 101//2 108//2
f 100//2 108//2 107//2
f 31//8 36//8 110//8
f 31//8 110//8 103//8
f 104//8 111//8 109//8
f 104//8 109//8 102//8
f 105//2 106//2 113//2
f 105//2 113//2 112//2
f 107//2 108//2 115//2
f 107//2 115//2 114//2
f 36//9 41//9 117//9
f 36//9 117//9 110//9
f 111//9 118//9 116//9
f 111//9 116//9 109//9
f 112//2 113//2 120//2
f 112//2 120//2 119//2
f 114//2 115//2 122//2
f 114//2 122//2 121//2
f 41//10 46//10 124//10
f 41//10 124//10 117//10
f 118//10 125//10 123//10
f 118//10 123//10 116//10
f 119//2 120//2 127//2
f 119//2 127//2 126//2
f 121//2 122//2 129//2
f 121//2 129//2 128//2
f 46//11 51//11 131//11
f 46//11 131//11 124//11
f 125//11 132//11 130//11
f 125//11 130//11 123//11
f 126//2 127//2 134//2
f 126//2 134//2 133//2
f 128//2 129//2 136//2
f 128//2 136//2 135//2
f 51//12 56//12 138//12
f 51//12 138//12 131//12
f 132//12 139//12 137//12
f 132//12 137//12 130//12
f 133//2 134//2 141//2
f 133//2 141//2 140//2
f 135//2 136//2 143//2
f 135//2 143//2 142//2
f 56//13 61//13 145//13
f 56//13 145//13 138//13
f 139//13 146//13 144//13
f 139//13 144//13 137//13
f 140//2 141//2 65//2
f 140//2 65//2 63//2
f 142//2 143//2 69//2
f 142//2 69//2 67//2
f 61//14 11//14 74//14
f 61//14 74//14 145//14
f 146//14 76//14 71//14
f 146//14 71//14 144//14
f 147//1 150//1 151//1
f 147//1 151//1 148//1
f 152//1 154//1 155//1
f 152//1 155//1 153//1
f 158//1 159//1 150//1
f 158//1 150//1 147//1
f 160//1 161//1 154//1
f 160//1 154//1 152//1
f 163//1 164//1 159//1
f 163//1 159//1 158//1
f 165//1 166//1 161//1
f 165//1 161//1 160//1
f 168//1 169//1 164//1
f 168//1 164//1 163//1
f 170//1 171//1 166//1
f 170//1 166//1 165//1
f 173//1 174//1 169//1
f 173//1 169//1 168//1
f 175//1 176//1 171//1
f 175//1 171//1 170//1
f 178//1 179//1 174//1
f 178//1 174//1 173//1
f 180//1 181//1 176//1
f 180//1 176//1 175//1
f 183//1 184//1 179//1
f 183//1 179//1 178//1
f 185//1 186//1 181//1
f 185//1 181//1 180//1
f 188//1 189//1 184//1
f 188//1 184//1 183//1
f 190//1 191//1 186//1
f 190//1 186//1 185//1
f 193//1 194//1 189//1
f 193//1 189//1 188//1
f 195//1 196//1 191//1
f 195//1 191//1 190//1
f 198//1 199//1 194//1
f 198//1 194//1 193//1
f 200//1 201//1 196//1
f 200//1 196//1 195//1
f 203//1 204//1 199//1
f 203//1 199//1 198//1
f 205//1 206//1 201//1
f 205//1 201//1 200//1
f 148//1 151//1 204//1
f 148//1 204//1 203//1
f 153//1 155//1 206//1
f 153//1 206//1 205//1
f 209//2 211//2 212//2
f 209//2 212//2 210//2
f 213//2 215//2 216//2
f 213//2 216//2 214//2
f 157//3 156//3 219//3
f 157//3 219//3 220//3
f 222//3 221//3 218//3
f 222//3 218//3 217//3
f 210//2 212//2 224//2
f 210//2 224//2 223//2
f 214//2 216//2 226//2
f 214//2 226//2 225//2
f 156//4 162//4 228//4
f 156//4 228//4 219//4
f 221//4 229//4 227//4
f 221//4 227//4 218//4
f 223//2 224//2 231//2
f 223//2 231//2 230//2
f 225//2 226//2 233//2
f 225//2 233//2 232//2
f 162//5 167//5 235//5
f 162//5 235//5 228//5
f 229//5 236//5 234//5
f 229//5 234//5 227//5
f 230//2 231//2 238//2
f 230//2 238//2 237//2
f 232//2 233//2 240//2
f 232//2 240//2 239//2
f 167//6 172//6 242//6
f 167//6 242//6 235//6
f 236//6 243//6 241//6
f 236//6 241//6 234//6
f 237//2 238//2 245//2
f 237//2 245//2 244//2
f 239//2 240//2 247//2
f 239//2 247//2 246//2
f 172//7 177//7 249//7
f 172//7 249//7 242//7
f 243//7 250//7 248//7
f 243//7 248//7 241//7
f 244//2 245//2 252//2
f 244//2 252//2 251//2
f 246//2 247//2 254//2
f 246//2 254//2 253//2
f 177//8 182//8 256//8
f 177//8 256//8 249//8
f 250//8 257//8 255//8
f 250//8 255//8 248//8
f 251//2 252//2 259//2
f 251//2 259//2 258//2
f 253//2 254//2 261//2
f 253//2 261//2 260//2
f 182//9 187//9 263//9
f 182//9 263//9 256//9
f 257//9 264//9 262//9
f 257//9 262//9 255//9
f 258//2 259//2 266//2
f 258//2 266//2 265//2
f 260//2 261//2 268//2
f 260//2 268//2 267//2
f 187//10 192//10 270//10
f 187//10 270//10 263//10
f 264//10 271//10 269//10
f 264//10 269//10 262//10
f 265//2 266//2 273//2
f 265//2 273//2 272//2
f 267//2 268//2 275//2
f 267//2 275//2 274//2
f 192//11 197//11 277//11
f 192//11 277//11 270//11
f 271//11 278//11 276//11
f 271//11 276//11 269//11
f 272//2 273//2 280//2
f 272//2 280//2 279//2
f 274//2 275//2 282//2
f 274//2 282//2 281//2
f 197//12 202//12 284//12
f 197//12 284//12 277//12
f 278//12 285//12 283//12
f 278//12 283//12 276//12
f 279//2 280//2 287//2
f 279//2 287//2 286//2
f 281//2 282//2 289//2
f 281//2 289//2 288//2
f 202//13 207//13 291//13
f 202//13 291//13 284//13
f 285//13 292//13 290//13
f 285//13 290//13 283//13
f 286//2 287//2 211//2
f 286//2 211//2 209//2
f 288//2 289//2 215//2
f 288//2 215//2 213//2
f 207//14 157//14 220//14
f 207//14 220//14 291//14
f 292//14 222//14 217//14
f 292//14 217//14 290//14
f 443//195 444//195 445//195
f 443//196 446//196 444//196
f 443//197 447//197 446//197
f 443//198 448//198 447//198
f 443//199 449//199 448//199
f 443//200 445//200 449//200
f 445//201 444//201 450//201
f 445//201 450//201 451//201
f 444//202 446//202 452//202
f 444//202 452//202 450//202
f 446//203 447//203 453//203
f 446//203 453//203 452//203
f 447//204 448//204 454//204
f 447//204 454//204 453//204
f 448//205 449//205 455//205
f 448//205 455//205 454//205
f 449//206 445//206 451//206
f 449//206 451//206 455//206
f 451//207 450//207 456//207
f 451//207 456//207 457//207
f 450//208 452//208 458//208
f 450//208 458//208 456//208
f 452//209 453//209 459//209
f 452//209 459//209 458//209
f 453//210 454//210 460//210
f 453//210 460//210 459//210
f 454//211 455//211 461//211
f 454//211 461//211 460//211
f 455//212 451//212 457//212
f 455//212 457//212 461//212
f 457//213 456//213 462//213
f 456//214 458//214 462//214
f 458//215 459//215 462//215
f 459//216 460//216 462//216
f 460//217 461//217 462//217
f 461//218 457//218 462//218
f 463//195 464//195 465//195
f 463//196 466//196 464//196
f 463//197 467//197 466//197
f 463//198 468//198 467//198
f 463//199 469//199 468//199
f 463//200 465//200 469//200
f 465//201 464//201 470//201
f 465//201 470//201 471//201
f 464//202 466//202 472//202
f 464//202 472//202 470//202
f 466//203 467//203 473//203
f 466//203 473//203 472//203
f 467//204 468//204 474//204
f 467//204 474//204 473//204
f 468//205 469//205 475//205
f 468//205 475//205 474//205
f 469//206 465//206 471//206
f 469//206 471//206 475//206
f 471//207 470//207 476//207
f 471//207 476//207 477//207
f 470//208 472//208 478//208
f 470//208 478//208 476//208
f 472//209 473//209 479//209
f 472//209 479//209 478//209
f 473//210 474//210 480//210
f 473//210 480//210 479//210
f 474//211 475//211 481//211
f 474//211 481//211 480//211
f 475//212 471//212 477//212
f 475//212 477//212 481//212
f 477//213 476//213 482//213
f 476//214 478//214 482//214
f 478//215 479//215 482//215
f 479//216 480//216 482//216
f 480//217 481//217 482//217
f 481//218 477//218 482//218
f 483//219 484//219 485//219
f 483//220 486//220 484//220
f 483//221 487//221 486//221
f 483//222 488//222 487//222
f 483//223 489//223 488//223
f 483//224 485//224 489//224
f 485//225 484//225 490//225
f 485//225 490//225 491//225
f 484//226 486//226 492//226
f 484//226 492//226 490//226
f 486//227 487//227 493//227
f 486//227 493//227 492//227
f 487//228 488//228 494//228
f 487//228 494//228 493//228
f 488//229 489//229 495//229
f 488//229 495//229 494//229
f 489//230 485//230 491//230
f 489//230 491//230 495//230
f 491//231 490//231 496//231
f 491//231 496//231 497//231
f 490//232 492//232 498//232
f 490//232 498//232 496//232
f 492//233 493//233 499//233
f 492//233 499//233 498//233
f 493//234 494//234 500//234
f 493//234 500//234 499//234
f 494//235 495//235 501//235
f 494//235 501//235 500//235
f 495//236 491//236 497//236
f 495//236 497//236 501//236
f 497//237 496//237 502//237
f 496//238 498//238 502//238
f 498//239 499//239 502//239
f 499//240 500//240 502//240
f 500//241 501//241 502//241
f 501//242 497//242 502//242
usemtl Rubber
f 74//3 73//3 75//3
f 74//3 75//3 76//3
f 73//4 82//4 83//4
f 73//4 83//4 75//4
f 82//5 89//5 90//5
f 82//5 90//5 83//5
f 89//6 96//6 97//6
f 89//6 97//6 90//6
f 96//7 103//7 104//7
f 96//7 104//7 97//7
f 103//8 110//8 111//8
f 103//8 111//8 104//8
f 110//9 117//9 118//9
f 110//9 118//9 111//9
f 117//10 124//10 125//10
f 117//10 125//10 118//10
f 124//11 131//11 132//11
f 124//11 132//11 125//11
f 131//12 138//12 139//12
f 131//12 139//12 132//12
f 138//13 145//13 146//13
f 138//13 146//13 139//13
f 145//14 74//14 76//14
f 145//14 76//14 146//14
f 220//3 219//3 221//3
f 220//3 221//3 222//3
f 219//4 228//4 229//4
f 219//4 229//4 221//4
f 228//5 235//5 236//5
f 228//5 236//5 229//5
f 235//6 242//6 243//6
f 235//6 243//6 236//6
f 242//7 249//7 250//7
f 242//7 250//7 243//7
f 249//8 256//8 257//8
f 249//8 257//8 250//8
f 256//9 263//9 264//9
f 256//9 264//9 257//9
f 263//10 270//10 271//10
f 263//10 271//10 264//10
f 270//11 277//11 278//11
f 270//11 278//11 271//11
f 277//12 284//12 285//12
f 277//12 285//12 278//12
f 284//13 291//13 292//13
f 284//13 292//13 285//13
f 291//14 220//14 222//14
f 291//14 222//14 292//14
