# Original VulkanTron Obsidian cycle; generated by create_obsidian_art.py
mtllib lightcycle.mtl
v -0.690000 -2.707225 0.141342
v -0.690000 -2.669000 -0.100000
v -0.690000 -3.450000 -0.100000
v -0.690000 -2.639700 0.163282
v -0.690000 -2.598000 -0.100000
v -0.690000 -2.288570 0.277372
v -0.690000 -2.228800 -0.100000
v -0.690000 -2.180530 0.312476
v -0.690000 -2.115200 -0.100000
v -0.690000 -2.099500 0.338804
v -0.690000 -2.030000 -0.100000
v -0.690000 -2.818158 0.359060
v -0.690000 -2.760718 0.400793
v -0.690000 -2.462028 0.617803
v -0.690000 -2.370124 0.684576
v -0.690000 -2.301196 0.734655
v -0.690000 -2.990940 0.531842
v -0.690000 -2.949207 0.589282
v -0.690000 -2.732197 0.887972
v -0.690000 -2.665424 0.979876
v -0.690000 -2.615345 1.048804
v -0.690000 -3.208658 0.642775
v -0.690000 -3.186718 0.710300
v -0.690000 -3.072628 1.061430
v -0.690000 -3.037524 1.169470
v -0.690000 -3.011196 1.250500
v -0.690000 -3.450000 0.681000
v -0.690000 -3.450000 0.752000
v -0.690000 -3.450000 1.121200
v -0.690000 -3.450000 1.234800
v -0.690000 -3.450000 1.320000
v -0.690000 -3.691342 0.642775
v -0.690000 -3.713282 0.710300
v -0.690000 -3.827372 1.061430
v -0.690000 -3.862476 1.169470
v -0.690000 -3.888804 1.250500
v -0.690000 -3.909060 0.531842
v -0.690000 -3.950793 0.589282
v -0.690000 -4.167803 0.887972
v -0.690000 -4.234576 0.979876
v -0.690000 -4.284655 1.048804
v -0.690000 -4.081842 0.359060
v -0.690000 -4.139282 0.400793
v -0.690000 -4.437972 0.617803
v -0.690000 -4.529876 0.684576
v -0.690000 -4.598804 0.734655
v -0.690000 -4.192775 0.141342
v -0.690000 -4.260300 0.163282
v -0.690000 -4.611430 0.277372
v -0.690000 -4.719470 0.312476
v -0.690000 -4.800500 0.338804
v -0.690000 -4.231000 -0.100000
v -0.690000 -4.302000 -0.100000
v -0.690000 -4.671200 -0.100000
v -0.690000 -4.784800 -0.100000
v -0.690000 -4.870000 -0.100000
v -0.690000 -4.192775 -0.341342
v -0.690000 -4.260300 -0.363282
v -0.690000 -4.611430 -0.477372
v -0.690000 -4.719470 -0.512476
v -0.690000 -4.800500 -0.538804
v -0.690000 -4.081842 -0.559060
v -0.690000 -4.139282 -0.600793
v -0.690000 -4.437972 -0.817803
v -0.690000 -4.529876 -0.884576
v -0.690000 -4.598804 -0.934655
v -0.690000 -3.909060 -0.731842
v -0.690000 -3.950793 -0.789282
v -0.690000 -4.167803 -1.087972
v -0.690000 -4.234576 -1.179876
v -0.690000 -4.284655 -1.248804
v -0.690000 -3.691342 -0.842775
v -0.690000 -3.713282 -0.910300
v -0.690000 -3.827372 -1.261430
v -0.690000 -3.862476 -1.369470
v -0.690000 -3.888804 -1.450500
v -0.690000 -3.450000 -0.881000
v -0.690000 -3.450000 -0.952000
v -0.690000 -3.450000 -1.321200
v -0.690000 -3.450000 -1.434800
v -0.690000 -3.450000 -1.520000
v -0.690000 -3.208658 -0.842775
v -0.690000 -3.186718 -0.910300
v -0.690000 -3.072628 -1.261430
v -0.690000 -3.037524 -1.369470
v -0.690000 -3.011196 -1.450500
v -0.690000 -2.990940 -0.731842
v -0.690000 -2.949207 -0.789282
v -0.690000 -2.732197 -1.087972
v -0.690000 -2.665424 -1.179876
v -0.690000 -2.615345 -1.248804
v -0.690000 -2.818158 -0.559060
v -0.690000 -2.760718 -0.600793
v -0.690000 -2.462028 -0.817803
v -0.690000 -2.370124 -0.884576
v -0.690000 -2.301196 -0.934655
v -0.690000 -2.707225 -0.341342
v -0.690000 -2.639700 -0.363282
v -0.690000 -2.288570 -0.477372
v -0.690000 -2.180530 -0.512476
v -0.690000 -2.099500 -0.538804
v 0.690000 -3.450000 -0.100000
v 0.690000 -2.669000 -0.100000
v 0.690000 -2.707225 0.141342
v 0.690000 -2.598000 -0.100000
v 0.690000 -2.639700 0.163282
v 0.690000 -2.228800 -0.100000
v 0.690000 -2.288570 0.277372
v 0.690000 -2.115200 -0.100000
v 0.690000 -2.180530 0.312476
v 0.690000 -2.030000 -0.100000
v 0.690000 -2.099500 0.338804
v -0.590000 -2.099500 0.338804
v -0.590000 -2.030000 -0.100000
v 0.590000 -2.099500 0.338804
v 0.590000 -2.030000 -0.100000
v 0.690000 -2.818158 0.359060
v 0.690000 -2.760718 0.400793
v 0.690000 -2.462028 0.617803
v 0.690000 -2.370124 0.684576
v 0.690000 -2.301196 0.734655
v -0.590000 -2.301196 0.734655
v 0.590000 -2.301196 0.734655
v 0.690000 -2.990940 0.531842
v 0.690000 -2.949207 0.589282
v 0.690000 -2.732197 0.887972
v 0.690000 -2.665424 0.979876
v 0.690000 -2.615345 1.048804
v -0.590000 -2.615345 1.048804
v 0.590000 -2.615345 1.048804
v 0.690000 -3.208658 0.642775
v 0.690000 -3.186718 0.710300
v 0.690000 -3.072628 1.061430
v 0.690000 -3.037524 1.169470
v 0.690000 -3.011196 1.250500
v -0.590000 -3.011196 1.250500
v 0.590000 -3.011196 1.250500
v 0.690000 -3.450000 0.681000
v 0.690000 -3.450000 0.752000
v 0.690000 -3.450000 1.121200
v 0.690000 -3.450000 1.234800
v 0.690000 -3.450000 1.320000
v -0.590000 -3.450000 1.320000
v 0.590000 -3.450000 1.320000
v 0.690000 -3.691342 0.642775
v 0.690000 -3.713282 0.710300
v 0.690000 -3.827372 1.061430
v 0.690000 -3.862476 1.169470
v 0.690000 -3.888804 1.250500
v -0.590000 -3.888804 1.250500
v 0.590000 -3.888804 1.250500
v 0.690000 -3.909060 0.531842
v 0.690000 -3.950793 0.589282
v 0.690000 -4.167803 0.887972
v 0.690000 -4.234576 0.979876
v 0.690000 -4.284655 1.048804
v -0.590000 -4.284655 1.048804
v 0.590000 -4.284655 1.048804
v 0.690000 -4.081842 0.359060
v 0.690000 -4.139282 0.400793
v 0.690000 -4.437972 0.617803
v 0.690000 -4.529876 0.684576
v 0.690000 -4.598804 0.734655
v -0.590000 -4.598804 0.734655
v 0.590000 -4.598804 0.734655
v 0.690000 -4.192775 0.141342
v 0.690000 -4.260300 0.163282
v 0.690000 -4.611430 0.277372
v 0.690000 -4.719470 0.312476
v 0.690000 -4.800500 0.338804
v -0.590000 -4.800500 0.338804
v 0.590000 -4.800500 0.338804
v 0.690000 -4.231000 -0.100000
v 0.690000 -4.302000 -0.100000
v 0.690000 -4.671200 -0.100000
v 0.690000 -4.784800 -0.100000
v 0.690000 -4.870000 -0.100000
v -0.590000 -4.870000 -0.100000
v 0.590000 -4.870000 -0.100000
v 0.690000 -4.192775 -0.341342
v 0.690000 -4.260300 -0.363282
v 0.690000 -4.611430 -0.477372
v 0.690000 -4.719470 -0.512476
v 0.690000 -4.800500 -0.538804
v -0.590000 -4.800500 -0.538804
v 0.590000 -4.800500 -0.538804
v 0.690000 -4.081842 -0.559060
v 0.690000 -4.139282 -0.600793
v 0.690000 -4.437972 -0.817803
v 0.690000 -4.529876 -0.884576
v 0.690000 -4.598804 -0.934655
v -0.590000 -4.598804 -0.934655
v 0.590000 -4.598804 -0.934655
v 0.690000 -3.909060 -0.731842
v 0.690000 -3.950793 -0.789282
v 0.690000 -4.167803 -1.087972
v 0.690000 -4.234576 -1.179876
v 0.690000 -4.284655 -1.248804
v -0.590000 -4.284655 -1.248804
v 0.590000 -4.284655 -1.248804
v 0.690000 -3.691342 -0.842775
v 0.690000 -3.713282 -0.910300
v 0.690000 -3.827372 -1.261430
v 0.690000 -3.862476 -1.369470
v 0.690000 -3.888804 -1.450500
v -0.590000 -3.888804 -1.450500
v 0.590000 -3.888804 -1.450500
v 0.690000 -3.450000 -0.881000
v 0.690000 -3.450000 -0.952000
v 0.690000 -3.450000 -1.321200
v 0.690000 -3.450000 -1.434800
v 0.690000 -3.450000 -1.520000
v -0.590000 -3.450000 -1.520000
v 0.590000 -3.450000 -1.520000
v 0.690000 -3.208658 -0.842775
v 0.690000 -3.186718 -0.910300
v 0.690000 -3.072628 -1.261430
v 0.690000 -3.037524 -1.369470
v 0.690000 -3.011196 -1.450500
v -0.590000 -3.011196 -1.450500
v 0.590000 -3.011196 -1.450500
v 0.690000 -2.990940 -0.731842
v 0.690000 -2.949207 -0.789282
v 0.690000 -2.732197 -1.087972
v 0.690000 -2.665424 -1.179876
v 0.690000 -2.615345 -1.248804
v -0.590000 -2.615345 -1.248804
v 0.590000 -2.615345 -1.248804
v 0.690000 -2.818158 -0.559060
v 0.690000 -2.760718 -0.600793
v 0.690000 -2.462028 -0.817803
v 0.690000 -2.370124 -0.884576
v 0.690000 -2.301196 -0.934655
v -0.590000 -2.301196 -0.934655
v 0.590000 -2.301196 -0.934655
v 0.690000 -2.707225 -0.341342
v 0.690000 -2.639700 -0.363282
v 0.690000 -2.288570 -0.477372
v 0.690000 -2.180530 -0.512476
v 0.690000 -2.099500 -0.538804
v -0.590000 -2.099500 -0.538804
v 0.590000 -2.099500 -0.538804
v -0.760000 4.024160 0.211540
v -0.760000 4.064000 -0.040000
v -0.760000 3.250000 -0.040000
v -0.760000 4.094538 0.234407
v -0.760000 4.138000 -0.040000
v -0.760000 4.460505 0.353317
v -0.760000 4.522800 -0.040000
v -0.760000 4.573110 0.389904
v -0.760000 4.641200 -0.040000
v -0.760000 4.657564 0.417345
v -0.760000 4.730000 -0.040000
v -0.760000 3.908540 0.438457
v -0.760000 3.968407 0.481953
v -0.760000 4.279717 0.708133
v -0.760000 4.375504 0.777727
v -0.760000 4.447345 0.829922
v -0.760000 3.728457 0.618540
v -0.760000 3.771953 0.678407
v -0.760000 3.998133 0.989717
v -0.760000 4.067727 1.085504
v -0.760000 4.119922 1.157345
v -0.760000 3.501540 0.734160
v -0.760000 3.524407 0.804538
v -0.760000 3.643317 1.170505
v -0.760000 3.679904 1.283110
v -0.760000 3.707345 1.367564
v -0.760000 3.250000 0.774000
v -0.760000 3.250000 0.848000
v -0.760000 3.250000 1.232800
v -0.760000 3.250000 1.351200
v -0.760000 3.250000 1.440000
v -0.760000 2.998460 0.734160
v -0.760000 2.975593 0.804538
v -0.760000 2.856683 1.170505
v -0.760000 2.820096 1.283110
v -0.760000 2.792655 1.367564
v -0.760000 2.771543 0.618540
v -0.760000 2.728047 0.678407
v -0.760000 2.501867 0.989717
v -0.760000 2.432273 1.085504
v -0.760000 2.380078 1.157345
v -0.760000 2.591460 0.438457
v -0.760000 2.531593 0.481953
v -0.760000 2.220283 0.708133
v -0.760000 2.124496 0.777727
v -0.760000 2.052655 0.829922
v -0.760000 2.475840 0.211540
v -0.760000 2.405462 0.234407
v -0.760000 2.039495 0.353317
v -0.760000 1.926890 0.389904
v -0.760000 1.842436 0.417345
v -0.760000 2.436000 -0.040000
v -0.760000 2.362000 -0.040000
v -0.760000 1.977200 -0.040000
v -0.760000 1.858800 -0.040000
v -0.760000 1.770000 -0.040000
v -0.760000 2.475840 -0.291540
v -0.760000 2.405462 -0.314407
v -0.760000 2.039495 -0.433317
v -0.760000 1.926890 -0.469904
v -0.760000 1.842436 -0.497345
v -0.760000 2.591460 -0.518457
v -0.760000 2.531593 -0.561953
v -0.760000 2.220283 -0.788133
v -0.760000 2.124496 -0.857727
v -0.760000 2.052655 -0.909922
v -0.760000 2.771543 -0.698540
v -0.760000 2.728047 -0.758407
v -0.760000 2.501867 -1.069717
v -0.760000 2.432273 -1.165504
v -0.760000 2.380078 -1.237345
v -0.760000 2.998460 -0.814160
v -0.760000 2.975593 -0.884538
v -0.760000 2.856683 -1.250505
v -0.760000 2.820096 -1.363110
v -0.760000 2.792655 -1.447564
v -0.760000 3.250000 -0.854000
v -0.760000 3.250000 -0.928000
v -0.760000 3.250000 -1.312800
v -0.760000 3.250000 -1.431200
v -0.760000 3.250000 -1.520000
v -0.760000 3.501540 -0.814160
v -0.760000 3.524407 -0.884538
v -0.760000 3.643317 -1.250505
v -0.760000 3.679904 -1.363110
v -0.760000 3.707345 -1.447564
v -0.760000 3.728457 -0.698540
v -0.760000 3.771953 -0.758407
v -0.760000 3.998133 -1.069717
v -0.760000 4.067727 -1.165504
v -0.760000 4.119922 -1.237345
v -0.760000 3.908540 -0.518457
v -0.760000 3.968407 -0.561953
v -0.760000 4.279717 -0.788133
v -0.760000 4.375504 -0.857727
v -0.760000 4.447345 -0.909922
v -0.760000 4.024160 -0.291540
v -0.760000 4.094538 -0.314407
v -0.760000 4.460505 -0.433317
v -0.760000 4.573110 -0.469904
v -0.760000 4.657564 -0.497345
v 0.760000 3.250000 -0.040000
v 0.760000 4.064000 -0.040000
v 0.760000 4.024160 0.211540
v 0.760000 4.138000 -0.040000
v 0.760000 4.094538 0.234407
v 0.760000 4.522800 -0.040000
v 0.760000 4.460505 0.353317
v 0.760000 4.641200 -0.040000
v 0.760000 4.573110 0.389904
v 0.760000 4.730000 -0.040000
v 0.760000 4.657564 0.417345
v -0.660000 4.657564 0.417345
v -0.660000 4.730000 -0.040000
v 0.660000 4.657564 0.417345
v 0.660000 4.730000 -0.040000
v 0.760000 3.908540 0.438457
v 0.760000 3.968407 0.481953
v 0.760000 4.279717 0.708133
v 0.760000 4.375504 0.777727
v 0.760000 4.447345 0.829922
v -0.660000 4.447345 0.829922
v 0.660000 4.447345 0.829922
v 0.760000 3.728457 0.618540
v 0.760000 3.771953 0.678407
v 0.760000 3.998133 0.989717
v 0.760000 4.067727 1.085504
v 0.760000 4.119922 1.157345
v -0.660000 4.119922 1.157345
v 0.660000 4.119922 1.157345
v 0.760000 3.501540 0.734160
v 0.760000 3.524407 0.804538
v 0.760000 3.643317 1.170505
v 0.760000 3.679904 1.283110
v 0.760000 3.707345 1.367564
v -0.660000 3.707345 1.367564
v 0.660000 3.707345 1.367564
v 0.760000 3.250000 0.774000
v 0.760000 3.250000 0.848000
v 0.760000 3.250000 1.232800
v 0.760000 3.250000 1.351200
v 0.760000 3.250000 1.440000
v -0.660000 3.250000 1.440000
v 0.660000 3.250000 1.440000
v 0.760000 2.998460 0.734160
v 0.760000 2.975593 0.804538
v 0.760000 2.856683 1.170505
v 0.760000 2.820096 1.283110
v 0.760000 2.792655 1.367564
v -0.660000 2.792655 1.367564
v 0.660000 2.792655 1.367564
v 0.760000 2.771543 0.618540
v 0.760000 2.728047 0.678407
v 0.760000 2.501867 0.989717
v 0.760000 2.432273 1.085504
v 0.760000 2.380078 1.157345
v -0.660000 2.380078 1.157345
v 0.660000 2.380078 1.157345
v 0.760000 2.591460 0.438457
v 0.760000 2.531593 0.481953
v 0.760000 2.220283 0.708133
v 0.760000 2.124496 0.777727
v 0.760000 2.052655 0.829922
v -0.660000 2.052655 0.829922
v 0.660000 2.052655 0.829922
v 0.760000 2.475840 0.211540
v 0.760000 2.405462 0.234407
v 0.760000 2.039495 0.353317
v 0.760000 1.926890 0.389904
v 0.760000 1.842436 0.417345
v -0.660000 1.842436 0.417345
v 0.660000 1.842436 0.417345
v 0.760000 2.436000 -0.040000
v 0.760000 2.362000 -0.040000
v 0.760000 1.977200 -0.040000
v 0.760000 1.858800 -0.040000
v 0.760000 1.770000 -0.040000
v -0.660000 1.770000 -0.040000
v 0.660000 1.770000 -0.040000
v 0.760000 2.475840 -0.291540
v 0.760000 2.405462 -0.314407
v 0.760000 2.039495 -0.433317
v 0.760000 1.926890 -0.469904
v 0.760000 1.842436 -0.497345
v -0.660000 1.842436 -0.497345
v 0.660000 1.842436 -0.497345
v 0.760000 2.591460 -0.518457
v 0.760000 2.531593 -0.561953
v 0.760000 2.220283 -0.788133
v 0.760000 2.124496 -0.857727
v 0.760000 2.052655 -0.909922
v -0.660000 2.052655 -0.909922
v 0.660000 2.052655 -0.909922
v 0.760000 2.771543 -0.698540
v 0.760000 2.728047 -0.758407
v 0.760000 2.501867 -1.069717
v 0.760000 2.432273 -1.165504
v 0.760000 2.380078 -1.237345
v -0.660000 2.380078 -1.237345
v 0.660000 2.380078 -1.237345
v 0.760000 2.998460 -0.814160
v 0.760000 2.975593 -0.884538
v 0.760000 2.856683 -1.250505
v 0.760000 2.820096 -1.363110
v 0.760000 2.792655 -1.447564
v -0.660000 2.792655 -1.447564
v 0.660000 2.792655 -1.447564
v 0.760000 3.250000 -0.854000
v 0.760000 3.250000 -0.928000
v 0.760000 3.250000 -1.312800
v 0.760000 3.250000 -1.431200
v 0.760000 3.250000 -1.520000
v -0.660000 3.250000 -1.520000
v 0.660000 3.250000 -1.520000
v 0.760000 3.501540 -0.814160
v 0.760000 3.524407 -0.884538
v 0.760000 3.643317 -1.250505
v 0.760000 3.679904 -1.363110
v 0.760000 3.707345 -1.447564
v -0.660000 3.707345 -1.447564
v 0.660000 3.707345 -1.447564
v 0.760000 3.728457 -0.698540
v 0.760000 3.771953 -0.758407
v 0.760000 3.998133 -1.069717
v 0.760000 4.067727 -1.165504
v 0.760000 4.119922 -1.237345
v -0.660000 4.119922 -1.237345
v 0.660000 4.119922 -1.237345
v 0.760000 3.908540 -0.518457
v 0.760000 3.968407 -0.561953
v 0.760000 4.279717 -0.788133
v 0.760000 4.375504 -0.857727
v 0.760000 4.447345 -0.909922
v -0.660000 4.447345 -0.909922
v 0.660000 4.447345 -0.909922
v 0.760000 4.024160 -0.291540
v 0.760000 4.094538 -0.314407
v 0.760000 4.460505 -0.433317
v 0.760000 4.573110 -0.469904
v 0.760000 4.657564 -0.497345
v -0.660000 4.657564 -0.497345
v 0.660000 4.657564 -0.497345
v 0.000000 0.200000 -0.840000
v 0.412648 0.642456 -0.771669
v 0.433884 0.200000 -0.771669
v 0.351019 1.041601 -0.771669
v 0.255030 1.358364 -0.771669
v 0.134077 1.561738 -0.771669
v 0.000000 1.631816 -0.771669
v -0.134077 1.561738 -0.771669
v -0.255030 1.358364 -0.771669
v -0.351019 1.041601 -0.771669
v -0.412648 0.642456 -0.771669
v -0.433884 0.200000 -0.771669
v -0.412648 -0.242456 -0.771669
v -0.351019 -0.641601 -0.771669
v -0.255030 -0.958364 -0.771669
v -0.134077 -1.161738 -0.771669
v -0.000000 -1.231816 -0.771669
v 0.134077 -1.161738 -0.771669
v 0.255030 -0.958364 -0.771669
v 0.351019 -0.641601 -0.771669
v 0.412648 -0.242456 -0.771669
v 0.743566 0.997277 -0.580208
v 0.781831 0.200000 -0.580208
v 0.632515 1.716512 -0.580208
v 0.459549 2.287299 -0.580208
v 0.241599 2.653768 -0.580208
v 0.000000 2.780044 -0.580208
v -0.241599 2.653768 -0.580208
v -0.459549 2.287299 -0.580208
v -0.632515 1.716512 -0.580208
v -0.743566 0.997277 -0.580208
v -0.781831 0.200000 -0.580208
v -0.743566 -0.597277 -0.580208
v -0.632515 -1.316512 -0.580208
v -0.459549 -1.887299 -0.580208
v -0.241599 -2.253768 -0.580208
v -0.000000 -2.380044 -0.580208
v 0.241599 -2.253768 -0.580208
v 0.459549 -1.887299 -0.580208
v 0.632515 -1.316512 -0.580208
v 0.743566 -0.597277 -0.580208
v 0.927212 1.194189 -0.303539
v 0.974928 0.200000 -0.303539
v 0.788733 2.091059 -0.303539
v 0.573048 2.802820 -0.303539
v 0.301269 3.259798 -0.303539
v 0.000000 3.417262 -0.303539
v -0.301269 3.259798 -0.303539
v -0.573048 2.802820 -0.303539
v -0.788733 2.091059 -0.303539
v -0.927212 1.194189 -0.303539
v -0.974928 0.200000 -0.303539
v -0.927212 -0.794189 -0.303539
v -0.788733 -1.691059 -0.303539
v -0.573048 -2.402820 -0.303539
v -0.301269 -2.859798 -0.303539
v -0.000000 -3.017262 -0.303539
v 0.301269 -2.859798 -0.303539
v 0.573048 -2.402820 -0.303539
v 0.788733 -1.691059 -0.303539
v 0.927212 -0.794189 -0.303539
v 0.927212 1.194189 0.003539
v 0.974928 0.200000 0.003539
v 0.788733 2.091059 0.003539
v 0.573048 2.802820 0.003539
v 0.301269 3.259798 0.003539
v 0.000000 3.417262 0.003539
v -0.301269 3.259798 0.003539
v -0.573048 2.802820 0.003539
v -0.788733 2.091059 0.003539
v -0.927212 1.194189 0.003539
v -0.974928 0.200000 0.003539
v -0.927212 -0.794189 0.003539
v -0.788733 -1.691059 0.003539
v -0.573048 -2.402820 0.003539
v -0.301269 -2.859798 0.003539
v -0.000000 -3.017262 0.003539
v 0.301269 -2.859798 0.003539
v 0.573048 -2.402820 0.003539
v 0.788733 -1.691059 0.003539
v 0.927212 -0.794189 0.003539
v 0.743566 0.997277 0.280208
v 0.781831 0.200000 0.280208
v 0.632515 1.716512 0.280208
v 0.459549 2.287299 0.280208
v 0.241599 2.653768 0.280208
v 0.000000 2.780044 0.280208
v -0.241599 2.653768 0.280208
v -0.459549 2.287299 0.280208
v -0.632515 1.716512 0.280208
v -0.743566 0.997277 0.280208
v -0.781831 0.200000 0.280208
v -0.743566 -0.597277 0.280208
v -0.632515 -1.316512 0.280208
v -0.459549 -1.887299 0.280208
v -0.241599 -2.253768 0.280208
v -0.000000 -2.380044 0.280208
v 0.241599 -2.253768 0.280208
v 0.459549 -1.887299 0.280208
v 0.632515 -1.316512 0.280208
v 0.743566 -0.597277 0.280208
v 0.412648 0.642456 0.471669
v 0.433884 0.200000 0.471669
v 0.351019 1.041601 0.471669
v 0.255030 1.358364 0.471669
v 0.134077 1.561738 0.471669
v 0.000000 1.631816 0.471669
v -0.134077 1.561738 0.471669
v -0.255030 1.358364 0.471669
v -0.351019 1.041601 0.471669
v -0.412648 0.642456 0.471669
v -0.433884 0.200000 0.471669
v -0.412648 -0.242456 0.471669
v -0.351019 -0.641601 0.471669
v -0.255030 -0.958364 0.471669
v -0.134077 -1.161738 0.471669
v -0.000000 -1.231816 0.471669
v 0.134077 -1.161738 0.471669
v 0.255030 -0.958364 0.471669
v 0.351019 -0.641601 0.471669
v 0.412648 -0.242456 0.471669
v 0.000000 0.200000 0.540000
v 0.000000 -0.700000 -0.210000
v 0.292980 -0.425141 -0.143649
v 0.308057 -0.700000 -0.143649
v 0.249224 -0.177188 -0.143649
v 0.181072 0.019590 -0.143649
v 0.095195 0.145928 -0.143649
v 0.000000 0.189462 -0.143649
v -0.095195 0.145928 -0.143649
v -0.181072 0.019590 -0.143649
v -0.249224 -0.177188 -0.143649
v -0.292980 -0.425141 -0.143649
v -0.308057 -0.700000 -0.143649
v -0.292980 -0.974859 -0.143649
v -0.249224 -1.222812 -0.143649
v -0.181072 -1.419590 -0.143649
v -0.095195 -1.545928 -0.143649
v -0.000000 -1.589462 -0.143649
v 0.095195 -1.545928 -0.143649
v 0.181072 -1.419590 -0.143649
v 0.249224 -1.222812 -0.143649
v 0.292980 -0.974859 -0.143649
v 0.527932 -0.204722 0.042262
v 0.555100 -0.700000 0.042262
v 0.449086 0.242075 0.042262
v 0.326280 0.596656 0.042262
v 0.171535 0.824310 0.042262
v 0.000000 0.902755 0.042262
v -0.171535 0.824310 0.042262
v -0.326280 0.596656 0.042262
v -0.449086 0.242075 0.042262
v -0.527932 -0.204722 0.042262
v -0.555100 -0.700000 0.042262
v -0.527932 -1.195278 0.042262
v -0.449086 -1.642075 0.042262
v -0.326280 -1.996656 0.042262
v -0.171535 -2.224310 0.042262
v -0.000000 -2.302755 0.042262
v 0.171535 -2.224310 0.042262
v 0.326280 -1.996656 0.042262
v 0.449086 -1.642075 0.042262
v 0.527932 -1.195278 0.042262
v 0.658320 -0.082398 0.310911
v 0.692199 -0.700000 0.310911
v 0.560001 0.474749 0.310911
v 0.406864 0.916903 0.310911
v 0.213901 1.200784 0.310911
v 0.000000 1.298602 0.310911
v -0.213901 1.200784 0.310911
v -0.406864 0.916903 0.310911
v -0.560001 0.474749 0.310911
v -0.658320 -0.082398 0.310911
v -0.692199 -0.700000 0.310911
v -0.658320 -1.317602 0.310911
v -0.560001 -1.874749 0.310911
v -0.406864 -2.316903 0.310911
v -0.213901 -2.600784 0.310911
v -0.000000 -2.698602 0.310911
v 0.213901 -2.600784 0.310911
v 0.406864 -2.316903 0.310911
v 0.560001 -1.874749 0.310911
v 0.658320 -1.317602 0.310911
v 0.658320 -0.082398 0.609089
v 0.692199 -0.700000 0.609089
v 0.560001 0.474749 0.609089
v 0.406864 0.916903 0.609089
v 0.213901 1.200784 0.609089
v 0.000000 1.298602 0.609089
v -0.213901 1.200784 0.609089
v -0.406864 0.916903 0.609089
v -0.560001 0.474749 0.609089
v -0.658320 -0.082398 0.609089
v -0.692199 -0.700000 0.609089
v -0.658320 -1.317602 0.609089
v -0.560001 -1.874749 0.609089
v -0.406864 -2.316903 0.609089
v -0.213901 -2.600784 0.609089
v -0.000000 -2.698602 0.609089
v 0.213901 -2.600784 0.609089
v 0.406864 -2.316903 0.609089
v 0.560001 -1.874749 0.609089
v 0.658320 -1.317602 0.609089
v 0.527932 -0.204722 0.877738
v 0.555100 -0.700000 0.877738
v 0.449086 0.242075 0.877738
v 0.326280 0.596656 0.877738
v 0.171535 0.824310 0.877738
v 0.000000 0.902755 0.877738
v -0.171535 0.824310 0.877738
v -0.326280 0.596656 0.877738
v -0.449086 0.242075 0.877738
v -0.527932 -0.204722 0.877738
v -0.555100 -0.700000 0.877738
v -0.527932 -1.195278 0.877738
v -0.449086 -1.642075 0.877738
v -0.326280 -1.996656 0.877738
v -0.171535 -2.224310 0.877738
v -0.000000 -2.302755 0.877738
v 0.171535 -2.224310 0.877738
v 0.326280 -1.996656 0.877738
v 0.449086 -1.642075 0.877738
v 0.527932 -1.195278 0.877738
v 0.292980 -0.425141 1.063649
v 0.308057 -0.700000 1.063649
v 0.249224 -0.177188 1.063649
v 0.181072 0.019590 1.063649
v 0.095195 0.145928 1.063649
v 0.000000 0.189462 1.063649
v -0.095195 0.145928 1.063649
v -0.181072 0.019590 1.063649
v -0.249224 -0.177188 1.063649
v -0.292980 -0.425141 1.063649
v -0.308057 -0.700000 1.063649
v -0.292980 -0.974859 1.063649
v -0.249224 -1.222812 1.063649
v -0.181072 -1.419590 1.063649
v -0.095195 -1.545928 1.063649
v -0.000000 -1.589462 1.063649
v 0.095195 -1.545928 1.063649
v 0.181072 -1.419590 1.063649
v 0.249224 -1.222812 1.063649
v 0.292980 -0.974859 1.063649
v 0.000000 -0.700000 1.130000
v 0.000000 -1.350000 0.180000
v 0.206324 -1.194470 0.246351
v 0.216942 -1.350000 0.246351
v 0.175510 -1.054165 0.246351
v 0.127515 -0.942818 0.246351
v 0.067039 -0.871328 0.246351
v 0.000000 -0.846695 0.246351
v -0.067039 -0.871328 0.246351
v -0.127515 -0.942818 0.246351
v -0.175510 -1.054165 0.246351
v -0.206324 -1.194470 0.246351
v -0.216942 -1.350000 0.246351
v -0.206324 -1.505530 0.246351
v -0.175510 -1.645835 0.246351
v -0.127515 -1.757182 0.246351
v -0.067039 -1.828672 0.246351
v -0.000000 -1.853305 0.246351
v 0.067039 -1.828672 0.246351
v 0.127515 -1.757182 0.246351
v 0.175510 -1.645835 0.246351
v 0.206324 -1.505530 0.246351
v 0.371783 -1.069745 0.432262
v 0.390916 -1.350000 0.432262
v 0.316257 -0.816923 0.432262
v 0.229775 -0.616283 0.432262
v 0.120800 -0.487464 0.432262
v 0.000000 -0.443075 0.432262
v -0.120800 -0.487464 0.432262
v -0.229775 -0.616283 0.432262
v -0.316257 -0.816923 0.432262
v -0.371783 -1.069745 0.432262
v -0.390916 -1.350000 0.432262
v -0.371783 -1.630255 0.432262
v -0.316257 -1.883077 0.432262
v -0.229775 -2.083717 0.432262
v -0.120800 -2.212536 0.432262
v -0.000000 -2.256925 0.432262
v 0.120800 -2.212536 0.432262
v 0.229775 -2.083717 0.432262
v 0.316257 -1.883077 0.432262
v 0.371783 -1.630255 0.432262
v 0.463606 -1.000528 0.700911
v 0.487464 -1.350000 0.700911
v 0.394367 -0.685264 0.700911
v 0.286524 -0.435069 0.700911
v 0.150635 -0.274435 0.700911
v 0.000000 -0.219084 0.700911
v -0.150635 -0.274435 0.700911
v -0.286524 -0.435069 0.700911
v -0.394367 -0.685264 0.700911
v -0.463606 -1.000528 0.700911
v -0.487464 -1.350000 0.700911
v -0.463606 -1.699472 0.700911
v -0.394367 -2.014736 0.700911
v -0.286524 -2.264931 0.700911
v -0.150635 -2.425565 0.700911
v -0.000000 -2.480916 0.700911
v 0.150635 -2.425565 0.700911
v 0.286524 -2.264931 0.700911
v 0.394367 -2.014736 0.700911
v 0.463606 -1.699472 0.700911
v 0.463606 -1.000528 0.999089
v 0.487464 -1.350000 0.999089
v 0.394367 -0.685264 0.999089
v 0.286524 -0.435069 0.999089
v 0.150635 -0.274435 0.999089
v 0.000000 -0.219084 0.999089
v -0.150635 -0.274435 0.999089
v -0.286524 -0.435069 0.999089
v -0.394367 -0.685264 0.999089
v -0.463606 -1.000528 0.999089
v -0.487464 -1.350000 0.999089
v -0.463606 -1.699472 0.999089
v -0.394367 -2.014736 0.999089
v -0.286524 -2.264931 0.999089
v -0.150635 -2.425565 0.999089
v -0.000000 -2.480916 0.999089
v 0.150635 -2.425565 0.999089
v 0.286524 -2.264931 0.999089
v 0.394367 -2.014736 0.999089
v 0.463606 -1.699472 0.999089
v 0.371783 -1.069745 1.267738
v 0.390916 -1.350000 1.267738
v 0.316257 -0.816923 1.267738
v 0.229775 -0.616283 1.267738
v 0.120800 -0.487464 1.267738
v 0.000000 -0.443075 1.267738
v -0.120800 -0.487464 1.267738
v -0.229775 -0.616283 1.267738
v -0.316257 -0.816923 1.267738
v -0.371783 -1.069745 1.267738
v -0.390916 -1.350000 1.267738
v -0.371783 -1.630255 1.267738
v -0.316257 -1.883077 1.267738
v -0.229775 -2.083717 1.267738
v -0.120800 -2.212536 1.267738
v -0.000000 -2.256925 1.267738
v 0.120800 -2.212536 1.267738
v 0.229775 -2.083717 1.267738
v 0.316257 -1.883077 1.267738
v 0.371783 -1.630255 1.267738
v 0.206324 -1.194470 1.453649
v 0.216942 -1.350000 1.453649
v 0.175510 -1.054165 1.453649
v 0.127515 -0.942818 1.453649
v 0.067039 -0.871328 1.453649
v 0.000000 -0.846695 1.453649
v -0.067039 -0.871328 1.453649
v -0.127515 -0.942818 1.453649
v -0.175510 -1.054165 1.453649
v -0.206324 -1.194470 1.453649
v -0.216942 -1.350000 1.453649
v -0.206324 -1.505530 1.453649
v -0.175510 -1.645835 1.453649
v -0.127515 -1.757182 1.453649
v -0.067039 -1.828672 1.453649
v -0.000000 -1.853305 1.453649
v 0.067039 -1.828672 1.453649
v 0.127515 -1.757182 1.453649
v 0.175510 -1.645835 1.453649
v 0.206324 -1.505530 1.453649
v 0.000000 -1.350000 1.520000
v -0.925000 0.200000 -0.155000
v -0.882095 1.172567 -0.130104
v -0.871967 0.200000 -0.130104
v -0.908612 1.773647 -0.130104
v -0.941388 1.773647 -0.130104
v -0.967905 1.172567 -0.130104
v -0.978033 0.200000 -0.130104
v -0.967905 -0.772567 -0.130104
v -0.941388 -1.373647 -0.130104
v -0.908612 -1.373647 -0.130104
v -0.882095 -0.772567 -0.130104
v -0.864324 1.575417 -0.070000
v -0.850000 0.200000 -0.070000
v -0.901824 2.425472 -0.070000
v -0.948176 2.425472 -0.070000
v -0.985676 1.575417 -0.070000
v -1.000000 0.200000 -0.070000
v -0.985676 -1.175417 -0.070000
v -0.948176 -2.025472 -0.070000
v -0.901824 -2.025472 -0.070000
v -0.864324 -1.175417 -0.070000
v -0.882095 1.172567 -0.009896
v -0.871967 0.200000 -0.009896
v -0.908612 1.773647 -0.009896
v -0.941388 1.773647 -0.009896
v -0.967905 1.172567 -0.009896
v -0.978033 0.200000 -0.009896
v -0.967905 -0.772567 -0.009896
v -0.941388 -1.373647 -0.009896
v -0.908612 -1.373647 -0.009896
v -0.882095 -0.772567 -0.009896
v -0.925000 0.200000 0.015000
v 0.925000 0.200000 -0.155000
v 0.967905 1.172567 -0.130104
v 0.978033 0.200000 -0.130104
v 0.941388 1.773647 -0.130104
v 0.908612 1.773647 -0.130104
v 0.882095 1.172567 -0.130104
v 0.871967 0.200000 -0.130104
v 0.882095 -0.772567 -0.130104
v 0.908612 -1.373647 -0.130104
v 0.941388 -1.373647 -0.130104
v 0.967905 -0.772567 -0.130104
v 0.985676 1.575417 -0.070000
v 1.000000 0.200000 -0.070000
v 0.948176 2.425472 -0.070000
v 0.901824 2.425472 -0.070000
v 0.864324 1.575417 -0.070000
v 0.850000 0.200000 -0.070000
v 0.864324 -1.175417 -0.070000
v 0.901824 -2.025472 -0.070000
v 0.948176 -2.025472 -0.070000
v 0.985676 -1.175417 -0.070000
v 0.967905 1.172567 -0.009896
v 0.978033 0.200000 -0.009896
v 0.941388 1.773647 -0.009896
v 0.908612 1.773647 -0.009896
v 0.882095 1.172567 -0.009896
v 0.871967 0.200000 -0.009896
v 0.882095 -0.772567 -0.009896
v 0.908612 -1.373647 -0.009896
v 0.941388 -1.373647 -0.009896
v 0.967905 -0.772567 -0.009896
v 0.925000 0.200000 0.015000
v 0.000000 -1.140000 1.490000
v 0.025743 -0.790873 1.494393
v 0.031820 -1.140000 1.494393
v 0.009833 -0.575101 1.494393
v -0.009833 -0.575101 1.494393
v -0.025743 -0.790873 1.494393
v -0.031820 -1.140000 1.494393
v -0.025743 -1.489127 1.494393
v -0.009833 -1.704899 1.494393
v 0.009833 -1.704899 1.494393
v 0.025743 -1.489127 1.494393
v 0.036406 -0.646260 1.505000
v 0.045000 -1.140000 1.505000
v 0.013906 -0.341113 1.505000
v -0.013906 -0.341113 1.505000
v -0.036406 -0.646260 1.505000
v -0.045000 -1.140000 1.505000
v -0.036406 -1.633740 1.505000
v -0.013906 -1.938887 1.505000
v 0.013906 -1.938887 1.505000
v 0.036406 -1.633740 1.505000
v 0.025743 -0.790873 1.515607
v 0.031820 -1.140000 1.515607
v 0.009833 -0.575101 1.515607
v -0.009833 -0.575101 1.515607
v -0.025743 -0.790873 1.515607
v -0.031820 -1.140000 1.515607
v -0.025743 -1.489127 1.515607
v -0.009833 -1.704899 1.515607
v 0.009833 -1.704899 1.515607
v 0.025743 -1.489127 1.515607
v 0.000000 -1.140000 1.520000
vn -1.000000 0.000000 -0.000000
vn 1.000000 0.000000 0.000000
vn 0.000000 0.987688 0.156434
vn 0.000000 0.891007 0.453990
vn 0.000000 0.707107 0.707107
vn 0.000000 0.453990 0.891007
vn 0.000000 0.156434 0.987688
vn 0.000000 -0.156434 0.987688
vn 0.000000 -0.453990 0.891007
vn 0.000000 -0.707107 0.707107
vn 0.000000 -0.891007 0.453990
vn 0.000000 -0.987688 0.156434
vn 0.000000 -0.987688 -0.156434
vn 0.000000 -0.891007 -0.453990
vn 0.000000 -0.707107 -0.707107
vn 0.000000 -0.453990 -0.891007
vn 0.000000 -0.156434 -0.987688
vn 0.000000 0.156434 -0.987688
vn 0.000000 0.453990 -0.891007
vn 0.000000 0.707107 -0.707107
vn 0.000000 0.891007 -0.453990
vn 0.000000 0.987688 -0.156434
vn 0.155566 0.007466 -0.987797
vn 0.140626 0.021713 -0.989825
vn 0.111975 0.033932 -0.993132
vn 0.072134 0.042900 -0.996472
vn 0.024908 0.047655 -0.998553
vn -0.024908 0.047655 -0.998553
vn -0.072134 0.042900 -0.996472
vn -0.111975 0.033932 -0.993132
vn -0.140626 0.021713 -0.989825
vn -0.155566 0.007466 -0.987797
vn -0.155566 -0.007466 -0.987797
vn -0.140626 -0.021713 -0.989825
vn -0.111975 -0.033932 -0.993132
vn -0.072134 -0.042900 -0.996472
vn -0.024908 -0.047655 -0.998553
vn 0.024908 -0.047655 -0.998553
vn 0.072134 -0.042900 -0.996472
vn 0.111975 -0.033932 -0.993132
vn 0.140626 -0.021713 -0.989825
vn 0.155566 -0.007466 -0.987797
vn 0.481962 0.023132 -0.875887
vn 0.443583 0.068490 -0.893612
vn 0.364285 0.110389 -0.924722
vn 0.242637 0.144304 -0.959325
vn 0.085649 0.163869 -0.982757
vn -0.085649 0.163869 -0.982757
vn -0.242637 0.144304 -0.959325
vn -0.364285 0.110389 -0.924722
vn -0.443583 0.068490 -0.893612
vn -0.481962 0.023132 -0.875887
vn -0.481962 -0.023132 -0.875887
vn -0.443583 -0.068490 -0.893612
vn -0.364285 -0.110389 -0.924722
vn -0.242637 -0.144304 -0.959325
vn -0.085649 -0.163869 -0.982757
vn 0.085649 -0.163869 -0.982757
vn 0.242637 -0.144304 -0.959325
vn 0.364285 -0.110389 -0.924722
vn 0.443583 -0.068490 -0.893612
vn 0.481962 -0.023132 -0.875887
vn 0.819393 0.039327 -0.571882
vn 0.785093 0.121220 -0.607400
vn 0.699761 0.212049 -0.682180
vn 0.522761 0.310902 -0.793763
vn 0.203791 0.389905 -0.898022
vn -0.203791 0.389905 -0.898022
vn -0.522761 0.310902 -0.793763
vn -0.699761 0.212049 -0.682180
vn -0.785093 0.121220 -0.607400
vn -0.819393 0.039327 -0.571882
vn -0.819393 -0.039327 -0.571882
vn -0.785093 -0.121220 -0.607400
vn -0.699761 -0.212049 -0.682180
vn -0.522761 -0.310902 -0.793763
vn -0.203791 -0.389905 -0.898022
vn 0.203791 -0.389905 -0.898022
vn 0.522761 -0.310902 -0.793763
vn 0.699761 -0.212049 -0.682180
vn 0.785093 -0.121220 -0.607400
vn 0.819393 -0.039327 -0.571882
vn 0.998850 0.047940 0.000000
vn 0.988289 0.152593 0.000000
vn 0.957024 0.290007 0.000000
vn 0.859485 0.511162 0.000000
vn 0.463213 0.886247 0.000000
vn -0.463213 0.886247 0.000000
vn -0.859485 0.511162 0.000000
vn -0.957024 0.290007 0.000000
vn -0.988289 0.152593 0.000000
vn -0.998850 0.047940 0.000000
vn -0.998850 -0.047940 0.000000
vn -0.988289 -0.152593 0.000000
vn -0.957024 -0.290007 0.000000
vn -0.859485 -0.511162 0.000000
vn -0.463213 -0.886247 0.000000
vn 0.463213 -0.886247 0.000000
vn 0.859485 -0.511162 0.000000
vn 0.957024 -0.290007 0.000000
vn 0.988289 -0.152593 0.000000
vn 0.998850 -0.047940 0.000000
vn 0.819393 0.039327 0.571882
vn 0.785093 0.121220 0.607400
vn 0.699761 0.212049 0.682180
vn 0.522761 0.310902 0.793763
vn 0.203791 0.389905 0.898022
vn -0.203791 0.389905 0.898022
vn -0.522761 0.310902 0.793763
vn -0.699761 0.212049 0.682180
vn -0.785093 0.121220 0.607400
vn -0.819393 0.039327 0.571882
vn -0.819393 -0.039327 0.571882
vn -0.785093 -0.121220 0.607400
vn -0.699761 -0.212049 0.682180
vn -0.522761 -0.310902 0.793763
vn -0.203791 -0.389905 0.898022
vn 0.203791 -0.389905 0.898022
vn 0.522761 -0.310902 0.793763
vn 0.699761 -0.212049 0.682180
vn 0.785093 -0.121220 0.607400
vn 0.819393 -0.039327 0.571882
vn 0.481962 0.023132 0.875887
vn 0.443583 0.068490 0.893612
vn 0.364285 0.110389 0.924722
vn 0.242637 0.144304 0.959325
vn 0.085649 0.163869 0.982757
vn -0.085649 0.163869 0.982757
vn -0.242637 0.144304 0.959325
vn -0.364285 0.110389 0.924722
vn -0.443583 0.068490 0.893612
vn -0.481962 0.023132 0.875887
vn -0.481962 -0.023132 0.875887
vn -0.443583 -0.068490 0.893612
vn -0.364285 -0.110389 0.924722
vn -0.242637 -0.144304 0.959325
vn -0.085649 -0.163869 0.982757
vn 0.085649 -0.163869 0.982757
vn 0.242637 -0.144304 0.959325
vn 0.364285 -0.110389 0.924722
vn 0.443583 -0.068490 0.893612
vn 0.481962 -0.023132 0.875887
vn 0.155566 0.007466 0.987797
vn 0.140626 0.021713 0.989825
vn 0.111975 0.033932 0.993132
vn 0.072134 0.042900 0.996472
vn 0.024908 0.047655 0.998553
vn -0.024908 0.047655 0.998553
vn -0.072134 0.042900 0.996472
vn -0.111975 0.033932 0.993132
vn -0.140626 0.021713 0.989825
vn -0.155566 0.007466 0.987797
vn -0.155566 -0.007466 0.987797
vn -0.140626 -0.021713 0.989825
vn -0.111975 -0.033932 0.993132
vn -0.072134 -0.042900 0.996472
vn -0.024908 -0.047655 0.998553
vn 0.024908 -0.047655 0.998553
vn 0.072134 -0.042900 0.996472
vn 0.111975 -0.033932 0.993132
vn 0.140626 -0.021713 0.989825
vn 0.155566 -0.007466 0.987797
vn 0.210542 0.011549 -0.977517
vn 0.190626 0.033640 -0.981086
vn 0.152185 0.052708 -0.986946
vn 0.098300 0.066818 -0.992911
vn 0.033999 0.074347 -0.996653
vn -0.033999 0.074347 -0.996653
vn -0.098300 0.066818 -0.992911
vn -0.152185 0.052708 -0.986946
vn -0.190626 0.033640 -0.981086
vn -0.210542 0.011549 -0.977517
vn -0.210542 -0.011549 -0.977517
vn -0.190626 -0.033640 -0.981086
vn -0.152185 -0.052708 -0.986946
vn -0.098300 -0.066818 -0.992911
vn -0.033999 -0.074347 -0.996653
vn 0.033999 -0.074347 -0.996653
vn 0.098300 -0.066818 -0.992911
vn 0.152185 -0.052708 -0.986946
vn 0.190626 -0.033640 -0.981086
vn 0.210542 -0.011549 -0.977517
vn 0.600974 0.032966 -0.798588
vn 0.558938 0.098636 -0.823322
vn 0.468033 0.162099 -0.868717
vn 0.319119 0.216916 -0.922557
vn 0.114579 0.250551 -0.961299
vn -0.114579 0.250551 -0.961299
vn -0.319119 0.216916 -0.922557
vn -0.468033 0.162099 -0.868717
vn -0.558938 0.098636 -0.823322
vn -0.600974 0.032966 -0.798588
vn -0.600974 -0.032966 -0.798588
vn -0.558938 -0.098636 -0.823322
vn -0.468033 -0.162099 -0.868717
vn -0.319119 -0.216916 -0.922557
vn -0.114579 -0.250551 -0.961299
vn 0.114579 -0.250551 -0.961299
vn 0.319119 -0.216916 -0.922557
vn 0.468033 -0.162099 -0.868717
vn 0.558938 -0.098636 -0.823322
vn 0.600974 -0.032966 -0.798588
vn 0.889657 0.048802 -0.454014
vn 0.860294 0.151816 -0.486668
vn 0.783725 0.271436 -0.558657
vn 0.609180 0.414080 -0.676341
vn 0.248733 0.543908 -0.801434
vn -0.248733 0.543908 -0.801434
vn -0.609180 0.414080 -0.676341
vn -0.783725 0.271436 -0.558657
vn -0.860294 0.151816 -0.486668
vn -0.889657 0.048802 -0.454014
vn -0.889657 -0.048802 -0.454014
vn -0.860294 -0.151816 -0.486668
vn -0.783725 -0.271436 -0.558657
vn -0.609180 -0.414080 -0.676341
vn -0.248733 -0.543908 -0.801434
vn 0.248733 -0.543908 -0.801434
vn 0.609180 -0.414080 -0.676341
vn 0.783725 -0.271436 -0.558657
vn 0.860294 -0.151816 -0.486668
vn 0.889657 -0.048802 -0.454014
vn 0.998499 0.054773 0.000000
vn 0.984784 0.173785 0.000000
vn 0.944931 0.327269 0.000000
vn 0.827029 0.562159 0.000000
vn 0.415883 0.909418 0.000000
vn -0.415883 0.909418 0.000000
vn -0.827029 0.562159 0.000000
vn -0.944931 0.327269 0.000000
vn -0.984784 0.173785 0.000000
vn -0.998499 0.054773 0.000000
vn -0.998499 -0.054773 0.000000
vn -0.984784 -0.173785 0.000000
vn -0.944931 -0.327269 0.000000
vn -0.827029 -0.562159 0.000000
vn -0.415883 -0.909418 0.000000
vn 0.415883 -0.909418 0.000000
vn 0.827029 -0.562159 0.000000
vn 0.944931 -0.327269 0.000000
vn 0.984784 -0.173785 0.000000
vn 0.998499 -0.054773 0.000000
vn 0.889657 0.048802 0.454014
vn 0.860294 0.151816 0.486668
vn 0.783725 0.271436 0.558657
vn 0.609180 0.414080 0.676341
vn 0.248733 0.543908 0.801434
vn -0.248733 0.543908 0.801434
vn -0.609180 0.414080 0.676341
vn -0.783725 0.271436 0.558657
vn -0.860294 0.151816 0.486668
vn -0.889657 0.048802 0.454014
vn -0.889657 -0.048802 0.454014
vn -0.860294 -0.151816 0.486668
vn -0.783725 -0.271436 0.558657
vn -0.609180 -0.414080 0.676341
vn -0.248733 -0.543908 0.801434
vn 0.248733 -0.543908 0.801434
vn 0.609180 -0.414080 0.676341
vn 0.783725 -0.271436 0.558657
vn 0.860294 -0.151816 0.486668
vn 0.889657 -0.048802 0.454014
vn 0.600974 0.032966 0.798588
vn 0.558938 0.098636 0.823322
vn 0.468033 0.162099 0.868717
vn 0.319119 0.216916 0.922557
vn 0.114579 0.250551 0.961299
vn -0.114579 0.250551 0.961299
vn -0.319119 0.216916 0.922557
vn -0.468033 0.162099 0.868717
vn -0.558938 0.098636 0.823322
vn -0.600974 0.032966 0.798588
vn -0.600974 -0.032966 0.798588
vn -0.558938 -0.098636 0.823322
vn -0.468033 -0.162099 0.868717
vn -0.319119 -0.216916 0.922557
vn -0.114579 -0.250551 0.961299
vn 0.114579 -0.250551 0.961299
vn 0.319119 -0.216916 0.922557
vn 0.468033 -0.162099 0.868717
vn 0.558938 -0.098636 0.823322
vn 0.600974 -0.032966 0.798588
vn 0.210542 0.011549 0.977517
vn 0.190626 0.033640 0.981086
vn 0.152185 0.052708 0.986946
vn 0.098300 0.066818 0.992911
vn 0.033999 0.074347 0.996653
vn -0.033999 0.074347 0.996653
vn -0.098300 0.066818 0.992911
vn -0.152185 0.052708 0.986946
vn -0.190626 0.033640 0.981086
vn -0.210542 0.011549 0.977517
vn -0.210542 -0.011549 0.977517
vn -0.190626 -0.033640 0.981086
vn -0.152185 -0.052708 0.986946
vn -0.098300 -0.066818 0.992911
vn -0.033999 -0.074347 0.996653
vn 0.033999 -0.074347 0.996653
vn 0.098300 -0.066818 0.992911
vn 0.152185 -0.052708 0.986946
vn 0.190626 -0.033640 0.981086
vn 0.210542 -0.011549 0.977517
vn 0.292414 0.019963 -0.956083
vn 0.265517 0.058314 -0.962341
vn 0.212991 0.091806 -0.972731
vn 0.138258 0.116959 -0.983466
vn 0.047970 0.130549 -0.990281
vn -0.047970 0.130549 -0.990281
vn -0.138258 0.116959 -0.983466
vn -0.212991 0.091806 -0.972731
vn -0.265517 0.058314 -0.962341
vn -0.292414 0.019963 -0.956083
vn -0.292414 -0.019963 -0.956083
vn -0.265517 -0.058314 -0.962341
vn -0.212991 -0.091806 -0.972731
vn -0.138258 -0.116959 -0.983466
vn -0.047970 -0.130549 -0.990281
vn 0.047970 -0.130549 -0.990281
vn 0.138258 -0.116959 -0.983466
vn 0.212991 -0.091806 -0.972731
vn 0.265517 -0.058314 -0.962341
vn 0.292414 -0.019963 -0.956083
vn 0.729254 0.049786 -0.682430
vn 0.686108 0.150685 -0.711723
vn 0.587794 0.253359 -0.768315
vn 0.413081 0.349447 -0.840982
vn 0.151943 0.413505 -0.897734
vn -0.151943 0.413505 -0.897734
vn -0.413081 0.349447 -0.840982
vn -0.587794 0.253359 -0.768315
vn -0.686108 0.150685 -0.711723
vn -0.729254 0.049786 -0.682430
vn -0.729254 -0.049786 -0.682430
vn -0.686108 -0.150685 -0.711723
vn -0.587794 -0.253359 -0.768315
vn -0.413081 -0.349447 -0.840982
vn -0.151943 -0.413505 -0.897734
vn 0.151943 -0.413505 -0.897734
vn 0.413081 -0.349447 -0.840982
vn 0.587794 -0.253359 -0.768315
vn 0.686108 -0.150685 -0.711723
vn 0.729254 -0.049786 -0.682430
vn 0.939136 0.064114 -0.337510
vn 0.910242 0.199910 -0.362623
vn 0.833976 0.359472 -0.418646
vn 0.655551 0.554565 -0.512553
vn 0.271614 0.739182 -0.616308
vn -0.271614 0.739182 -0.616308
vn -0.655551 0.554565 -0.512553
vn -0.833976 0.359472 -0.418646
vn -0.910242 0.199910 -0.362623
vn -0.939136 0.064114 -0.337510
vn -0.939136 -0.064114 -0.337510
vn -0.910242 -0.199910 -0.362623
vn -0.833976 -0.359472 -0.418646
vn -0.655551 -0.554565 -0.512553
vn -0.271614 -0.739182 -0.616308
vn 0.271614 -0.739182 -0.616308
vn 0.655551 -0.554565 -0.512553
vn 0.833976 -0.359472 -0.418646
vn 0.910242 -0.199910 -0.362623
vn 0.939136 -0.064114 -0.337510
vn 0.997678 0.068111 0.000000
vn 0.976722 0.214511 0.000000
vn 0.918324 0.395829 0.000000
vn 0.763462 0.645853 0.000000
vn 0.344904 0.938638 0.000000
vn -0.344904 0.938638 0.000000
vn -0.763462 0.645853 0.000000
vn -0.918324 0.395829 0.000000
vn -0.976722 0.214511 0.000000
vn -0.997678 0.068111 0.000000
vn -0.997678 -0.068111 0.000000
vn -0.976722 -0.214511 0.000000
vn -0.918324 -0.395829 0.000000
vn -0.763462 -0.645853 0.000000
vn -0.344904 -0.938638 0.000000
vn 0.344904 -0.938638 0.000000
vn 0.763462 -0.645853 0.000000
vn 0.918324 -0.395829 0.000000
vn 0.976722 -0.214511 0.000000
vn 0.997678 -0.068111 0.000000
vn 0.939136 0.064114 0.337510
vn 0.910242 0.199910 0.362623
vn 0.833976 0.359472 0.418646
vn 0.655551 0.554565 0.512553
vn 0.271614 0.739182 0.616308
vn -0.271614 0.739182 0.616308
vn -0.655551 0.554565 0.512553
vn -0.833976 0.359472 0.418646
vn -0.910242 0.199910 0.362623
vn -0.939136 0.064114 0.337510
vn -0.939136 -0.064114 0.337510
vn -0.910242 -0.199910 0.362623
vn -0.833976 -0.359472 0.418646
vn -0.655551 -0.554565 0.512553
vn -0.271614 -0.739182 0.616308
vn 0.271614 -0.739182 0.616308
vn 0.655551 -0.554565 0.512553
vn 0.833976 -0.359472 0.418646
vn 0.910242 -0.199910 0.362623
vn 0.939136 -0.064114 0.337510
vn 0.729254 0.049786 0.682430
vn 0.686108 0.150685 0.711723
vn 0.587794 0.253359 0.768315
vn 0.413081 0.349447 0.840982
vn 0.151943 0.413505 0.897734
vn -0.151943 0.413505 0.897734
vn -0.413081 0.349447 0.840982
vn -0.587794 0.253359 0.768315
vn -0.686108 0.150685 0.711723
vn -0.729254 0.049786 0.682430
vn -0.729254 -0.049786 0.682430
vn -0.686108 -0.150685 0.711723
vn -0.587794 -0.253359 0.768315
vn -0.413081 -0.349447 0.840982
vn -0.151943 -0.413505 0.897734
vn 0.151943 -0.413505 0.897734
vn 0.413081 -0.349447 0.840982
vn 0.587794 -0.253359 0.768315
vn 0.686108 -0.150685 0.711723
vn 0.729254 -0.049786 0.682430
vn 0.292414 0.019963 0.956083
vn 0.265517 0.058314 0.962341
vn 0.212991 0.091806 0.972731
vn 0.138258 0.116959 0.983466
vn 0.047970 0.130549 0.990281
vn -0.047970 0.130549 0.990281
vn -0.138258 0.116959 0.983466
vn -0.212991 0.091806 0.972731
vn -0.265517 0.058314 0.962341
vn -0.292414 0.019963 0.956083
vn -0.292414 -0.019963 0.956083
vn -0.265517 -0.058314 0.962341
vn -0.212991 -0.091806 0.972731
vn -0.138258 -0.116959 0.983466
vn -0.047970 -0.130549 0.990281
vn 0.047970 -0.130549 0.990281
vn 0.138258 -0.116959 0.983466
vn 0.212991 -0.091806 0.972731
vn 0.265517 -0.058314 0.962341
vn 0.292414 -0.019963 0.956083
vn 0.424943 0.004425 -0.905209
vn 0.278620 0.012291 -0.960323
vn 0.000000 0.015819 -0.999875
vn -0.278620 0.012291 -0.960323
vn -0.424943 0.004425 -0.905209
vn -0.424943 -0.004425 -0.905209
vn -0.278620 -0.012291 -0.960323
vn 0.000000 -0.015819 -0.999875
vn 0.278620 -0.012291 -0.960323
vn 0.424943 -0.004425 -0.905209
vn 0.939190 0.009781 -0.343258
vn 0.860135 0.037945 -0.508652
vn 0.000000 0.091819 -0.995776
vn -0.860135 0.037945 -0.508652
vn -0.939190 0.009781 -0.343258
vn -0.939190 -0.009781 -0.343258
vn -0.860135 -0.037945 -0.508652
vn 0.000000 -0.091819 -0.995776
vn 0.860135 -0.037945 -0.508652
vn 0.939190 -0.009781 -0.343258
vn 0.939190 0.009781 0.343258
vn 0.860135 0.037945 0.508652
vn 0.000000 0.091819 0.995776
vn -0.860135 0.037945 0.508652
vn -0.939190 0.009781 0.343258
vn -0.939190 -0.009781 0.343258
vn -0.860135 -0.037945 0.508652
vn -0.000000 -0.091819 0.995776
vn 0.860135 -0.037945 0.508652
vn 0.939190 -0.009781 0.343258
vn 0.424943 0.004425 0.905209
vn 0.278620 0.012291 0.960323
vn 0.000000 0.015819 0.999875
vn -0.278620 0.012291 0.960323
vn -0.424943 0.004425 0.905209
vn -0.424943 -0.004425 0.905209
vn -0.278620 -0.012291 0.960323
vn 0.000000 -0.015819 0.999875
vn 0.278620 -0.012291 0.960323
vn 0.424943 -0.004425 0.905209
vn 0.136773 0.002381 -0.990600
vn 0.085022 0.006269 -0.996359
vn 0.000000 0.007777 -0.999970
vn -0.085022 0.006269 -0.996359
vn -0.136773 0.002381 -0.990600
vn -0.136773 -0.002381 -0.990600
vn -0.085022 -0.006269 -0.996359
vn 0.000000 -0.007777 -0.999970
vn 0.085022 -0.006269 -0.996359
vn 0.136773 -0.002381 -0.990600
vn 0.626906 0.010912 -0.779019
vn 0.445078 0.032818 -0.894890
vn 0.000000 0.045283 -0.998974
vn -0.445078 0.032818 -0.894890
vn -0.626906 0.010912 -0.779019
vn -0.626906 -0.010912 -0.779019
vn -0.445078 -0.032818 -0.894890
vn 0.000000 -0.045283 -0.998974
vn 0.445078 -0.032818 -0.894890
vn 0.626906 -0.010912 -0.779019
vn 0.626906 0.010912 0.779019
vn 0.445078 0.032818 0.894890
vn 0.000000 0.045283 0.998974
vn -0.445078 0.032818 0.894890
vn -0.626906 0.010912 0.779019
vn -0.626906 -0.010912 0.779019
vn -0.445078 -0.032818 0.894890
vn -0.000000 -0.045283 0.998974
vn 0.445078 -0.032818 0.894890
vn 0.626906 -0.010912 0.779019
vn 0.136773 0.002381 0.990600
vn 0.085022 0.006269 0.996359
vn 0.000000 0.007777 0.999970
vn -0.085022 0.006269 0.996359
vn -0.136773 0.002381 0.990600
vn -0.136773 -0.002381 0.990600
vn -0.085022 -0.006269 0.996359
vn 0.000000 -0.007777 0.999970
vn 0.085022 -0.006269 0.996359
vn 0.136773 -0.002381 0.990600
usemtl Armor
f 1//1 2//1 3//1
f 4//1 6//1 7//1
f 4//1 7//1 5//1
f 8//1 10//1 11//1
f 8//1 11//1 9//1
f 12//1 1//1 3//1
f 13//1 14//1 6//1
f 13//1 6//1 4//1
f 15//1 16//1 10//1
f 15//1 10//1 8//1
f 17//1 12//1 3//1
f 18//1 19//1 14//1
f 18//1 14//1 13//1
f 20//1 21//1 16//1
f 20//1 16//1 15//1
f 22//1 17//1 3//1
f 23//1 24//1 19//1
f 23//1 19//1 18//1
f 25//1 26//1 21//1
f 25//1 21//1 20//1
f 27//1 22//1 3//1
f 28//1 29//1 24//1
f 28//1 24//1 23//1
f 30//1 31//1 26//1
f 30//1 26//1 25//1
f 32//1 27//1 3//1
f 33//1 34//1 29//1
f 33//1 29//1 28//1
f 35//1 36//1 31//1
f 35//1 31//1 30//1
f 37//1 32//1 3//1
f 38//1 39//1 34//1
f 38//1 34//1 33//1
f 40//1 41//1 36//1
f 40//1 36//1 35//1
f 42//1 37//1 3//1
f 43//1 44//1 39//1
f 43//1 39//1 38//1
f 45//1 46//1 41//1
f 45//1 41//1 40//1
f 47//1 42//1 3//1
f 48//1 49//1 44//1
f 48//1 44//1 43//1
f 50//1 51//1 46//1
f 50//1 46//1 45//1
f 52//1 47//1 3//1
f 53//1 54//1 49//1
f 53//1 49//1 48//1
f 55//1 56//1 51//1
f 55//1 51//1 50//1
f 57//1 52//1 3//1
f 58//1 59//1 54//1
f 58//1 54//1 53//1
f 60//1 61//1 56//1
f 60//1 56//1 55//1
f 62//1 57//1 3//1
f 63//1 64//1 59//1
f 63//1 59//1 58//1
f 65//1 66//1 61//1
f 65//1 61//1 60//1
f 67//1 62//1 3//1
f 68//1 69//1 64//1
f 68//1 64//1 63//1
f 70//1 71//1 66//1
f 70//1 66//1 65//1
f 72//1 67//1 3//1
f 73//1 74//1 69//1
f 73//1 69//1 68//1
f 75//1 76//1 71//1
f 75//1 71//1 70//1
f 77//1 72//1 3//1
f 78//1 79//1 74//1
f 78//1 74//1 73//1
f 80//1 81//1 76//1
f 80//1 76//1 75//1
f 82//1 77//1 3//1
f 83//1 84//1 79//1
f 83//1 79//1 78//1
f 85//1 86//1 81//1
f 85//1 81//1 80//1
f 87//1 82//1 3//1
f 88//1 89//1 84//1
f 88//1 84//1 83//1
f 90//1 91//1 86//1
f 90//1 86//1 85//1
f 92//1 87//1 3//1
f 93//1 94//1 89//1
f 93//1 89//1 88//1
f 95//1 96//1 91//1
f 95//1 91//1 90//1
f 97//1 92//1 3//1
f 98//1 99//1 94//1
f 98//1 94//1 93//1
f 100//1 101//1 96//1
f 100//1 96//1 95//1
f 2//1 97//1 3//1
f 5//1 7//1 99//1
f 5//1 99//1 98//1
f 9//1 11//1 101//1
f 9//1 101//1 100//1
f 102//2 103//2 104//2
f 105//2 107//2 108//2
f 105//2 108//2 106//2
f 109//2 111//2 112//2
f 109//2 112//2 110//2
f 102//2 104//2 117//2
f 106//2 108//2 119//2
f 106//2 119//2 118//2
f 110//2 112//2 121//2
f 110//2 121//2 120//2
f 102//2 117//2 124//2
f 118//2 119//2 126//2
f 118//2 126//2 125//2
f 120//2 121//2 128//2
f 120//2 128//2 127//2
f 102//2 124//2 131//2
f 125//2 126//2 133//2
f 125//2 133//2 132//2
f 127//2 128//2 135//2
f 127//2 135//2 134//2
f 102//2 131//2 138//2
f 132//2 133//2 140//2
f 132//2 140//2 139//2
f 134//2 135//2 142//2
f 134//2 142//2 141//2
f 102//2 138//2 145//2
f 139//2 140//2 147//2
f 139//2 147//2 146//2
f 141//2 142//2 149//2
f 141//2 149//2 148//2
f 102//2 145//2 152//2
f 146//2 147//2 154//2
f 146//2 154//2 153//2
f 148//2 149//2 156//2
f 148//2 156//2 155//2
f 102//2 152//2 159//2
f 153//2 154//2 161//2
f 153//2 161//2 160//2
f 155//2 156//2 163//2
f 155//2 163//2 162//2
f 102//2 159//2 166//2
f 160//2 161//2 168//2
f 160//2 168//2 167//2
f 162//2 163//2 170//2
f 162//2 170//2 169//2
f 102//2 166//2 173//2
f 167//2 168//2 175//2
f 167//2 175//2 174//2
f 169//2 170//2 177//2
f 169//2 177//2 176//2
f 102//2 173//2 180//2
f 174//2 175//2 182//2
f 174//2 182//2 181//2
f 176//2 177//2 184//2
f 176//2 184//2 183//2
f 102//2 180//2 187//2
f 181//2 182//2 189//2
f 181//2 189//2 188//2
f 183//2 184//2 191//2
f 183//2 191//2 190//2
f 102//2 187//2 194//2
f 188//2 189//2 196//2
f 188//2 196//2 195//2
f 190//2 191//2 198//2
f 190//2 198//2 197//2
f 102//2 194//2 201//2
f 195//2 196//2 203//2
f 195//2 203//2 202//2
f 197//2 198//2 205//2
f 197//2 205//2 204//2
f 102//2 201//2 208//2
f 202//2 203//2 210//2
f 202//2 210//2 209//2
f 204//2 205//2 212//2
f 204//2 212//2 211//2
f 102//2 208//2 215//2
f 209//2 210//2 217//2
f 209//2 217//2 216//2
f 211//2 212//2 219//2
f 211//2 219//2 218//2
f 102//2 215//2 222//2
f 216//2 217//2 224//2
f 216//2 224//2 223//2
f 218//2 219//2 226//2
f 218//2 226//2 225//2
f 102//2 222//2 229//2
f 223//2 224//2 231//2
f 223//2 231//2 230//2
f 225//2 226//2 233//2
f 225//2 233//2 232//2
f 102//2 229//2 236//2
f 230//2 231//2 238//2
f 230//2 238//2 237//2
f 232//2 233//2 240//2
f 232//2 240//2 239//2
f 102//2 236//2 103//2
f 237//2 238//2 107//2
f 237//2 107//2 105//2
f 239//2 240//2 111//2
f 239//2 111//2 109//2
f 243//1 244//1 245//1
f 246//1 248//1 249//1
f 246//1 249//1 247//1
f 250//1 252//1 253//1
f 250//1 253//1 251//1
f 254//1 243//1 245//1
f 255//1 256//1 248//1
f 255//1 248//1 246//1
f 257//1 258//1 252//1
f 257//1 252//1 250//1
f 259//1 254//1 245//1
f 260//1 261//1 256//1
f 260//1 256//1 255//1
f 262//1 263//1 258//1
f 262//1 258//1 257//1
f 264//1 259//1 245//1
f 265//1 266//1 261//1
f 265//1 261//1 260//1
f 267//1 268//1 263//1
f 267//1 263//1 262//1
f 269//1 264//1 245//1
f 270//1 271//1 266//1
f 270//1 266//1 265//1
f 272//1 273//1 268//1
f 272//1 268//1 267//1
f 274//1 269//1 245//1
f 275//1 276//1 271//1
f 275//1 271//1 270//1
f 277//1 278//1 273//1
f 277//1 273//1 272//1
f 279//1 274//1 245//1
f 280//1 281//1 276//1
f 280//1 276//1 275//1
f 282//1 283//1 278//1
f 282//1 278//1 277//1
f 284//1 279//1 245//1
f 285//1 286//1 281//1
f 285//1 281//1 280//1
f 287//1 288//1 283//1
f 287//1 283//1 282//1
f 289//1 284//1 245//1
f 290//1 291//1 286//1
f 290//1 286//1 285//1
f 292//1 293//1 288//1
f 292//1 288//1 287//1
f 294//1 289//1 245//1
f 295//1 296//1 291//1
f 295//1 291//1 290//1
f 297//1 298//1 293//1
f 297//1 293//1 292//1
f 299//1 294//1 245//1
f 300//1 301//1 296//1
f 300//1 296//1 295//1
f 302//1 303//1 298//1
f 302//1 298//1 297//1
f 304//1 299//1 245//1
f 305//1 306//1 301//1
f 305//1 301//1 300//1
f 307//1 308//1 303//1
f 307//1 303//1 302//1
f 309//1 304//1 245//1
f 310//1 311//1 306//1
f 310//1 306//1 305//1
f 312//1 313//1 308//1
f 312//1 308//1 307//1
f 314//1 309//1 245//1
f 315//1 316//1 311//1
f 315//1 311//1 310//1
f 317//1 318//1 313//1
f 317//1 313//1 312//1
f 319//1 314//1 245//1
f 320//1 321//1 316//1
f 320//1 316//1 315//1
f 322//1 323//1 318//1
f 322//1 318//1 317//1
f 324//1 319//1 245//1
f 325//1 326//1 321//1
f 325//1 321//1 320//1
f 327//1 328//1 323//1
f 327//1 323//1 322//1
f 329//1 324//1 245//1
f 330//1 331//1 326//1
f 330//1 326//1 325//1
f 332//1 333//1 328//1
f 332//1 328//1 327//1
f 334//1 329//1 245//1
f 335//1 336//1 331//1
f 335//1 331//1 330//1
f 337//1 338//1 333//1
f 337//1 333//1 332//1
f 339//1 334//1 245//1
f 340//1 341//1 336//1
f 340//1 336//1 335//1
f 342//1 343//1 338//1
f 342//1 338//1 337//1
f 244//1 339//1 245//1
f 247//1 249//1 341//1
f 247//1 341//1 340//1
f 251//1 253//1 343//1
f 251//1 343//1 342//1
f 344//2 345//2 346//2
f 347//2 349//2 350//2
f 347//2 350//2 348//2
f 351//2 353//2 354//2
f 351//2 354//2 352//2
f 344//2 346//2 359//2
f 348//2 350//2 361//2
f 348//2 361//2 360//2
f 352//2 354//2 363//2
f 352//2 363//2 362//2
f 344//2 359//2 366//2
f 360//2 361//2 368//2
f 360//2 368//2 367//2
f 362//2 363//2 370//2
f 362//2 370//2 369//2
f 344//2 366//2 373//2
f 367//2 368//2 375//2
f 367//2 375//2 374//2
f 369//2 370//2 377//2
f 369//2 377//2 376//2
f 344//2 373//2 380//2
f 374//2 375//2 382//2
f 374//2 382//2 381//2
f 376//2 377//2 384//2
f 376//2 384//2 383//2
f 344//2 380//2 387//2
f 381//2 382//2 389//2
f 381//2 389//2 388//2
f 383//2 384//2 391//2
f 383//2 391//2 390//2
f 344//2 387//2 394//2
f 388//2 389//2 396//2
f 388//2 396//2 395//2
f 390//2 391//2 398//2
f 390//2 398//2 397//2
f 344//2 394//2 401//2
f 395//2 396//2 403//2
f 395//2 403//2 402//2
f 397//2 398//2 405//2
f 397//2 405//2 404//2
f 344//2 401//2 408//2
f 402//2 403//2 410//2
f 402//2 410//2 409//2
f 404//2 405//2 412//2
f 404//2 412//2 411//2
f 344//2 408//2 415//2
f 409//2 410//2 417//2
f 409//2 417//2 416//2
f 411//2 412//2 419//2
f 411//2 419//2 418//2
f 344//2 415//2 422//2
f 416//2 417//2 424//2
f 416//2 424//2 423//2
f 418//2 419//2 426//2
f 418//2 426//2 425//2
f 344//2 422//2 429//2
f 423//2 424//2 431//2
f 423//2 431//2 430//2
f 425//2 426//2 433//2
f 425//2 433//2 432//2
f 344//2 429//2 436//2
f 430//2 431//2 438//2
f 430//2 438//2 437//2
f 432//2 433//2 440//2
f 432//2 440//2 439//2
f 344//2 436//2 443//2
f 437//2 438//2 445//2
f 437//2 445//2 444//2
f 439//2 440//2 447//2
f 439//2 447//2 446//2
f 344//2 443//2 450//2
f 444//2 445//2 452//2
f 444//2 452//2 451//2
f 446//2 447//2 454//2
f 446//2 454//2 453//2
f 344//2 450//2 457//2
f 451//2 452//2 459//2
f 451//2 459//2 458//2
f 453//2 454//2 461//2
f 453//2 461//2 460//2
f 344//2 457//2 464//2
f 458//2 459//2 466//2
f 458//2 466//2 465//2
f 460//2 461//2 468//2
f 460//2 468//2 467//2
f 344//2 464//2 471//2
f 465//2 466//2 473//2
f 465//2 473//2 472//2
f 467//2 468//2 475//2
f 467//2 475//2 474//2
f 344//2 471//2 478//2
f 472//2 473//2 480//2
f 472//2 480//2 479//2
f 474//2 475//2 482//2
f 474//2 482//2 481//2
f 344//2 478//2 345//2
f 479//2 480//2 349//2
f 479//2 349//2 347//2
f 481//2 482//2 353//2
f 481//2 353//2 351//2
f 485//23 486//23 487//23
f 485//24 488//24 486//24
f 485//25 489//25 488//25
f 485//26 490//26 489//26
f 485//27 491//27 490//27
f 485//28 492//28 491//28
f 485//29 493//29 492//29
f 485//30 494//30 493//30
f 485//31 495//31 494//31
f 485//32 496//32 495//32
f 485//33 497//33 496//33
f 485//34 498//34 497//34
f 485//35 499//35 498//35
f 485//36 500//36 499//36
f 485//37 501//37 500//37
f 485//38 502//38 501//38
f 485//39 503//39 502//39
f 485//40 504//40 503//40
f 485//41 505//41 504//41
f 485//42 487//42 505//42
f 487//43 486//43 506//43
f 487//43 506//43 507//43
f 486//44 488//44 508//44
f 486//44 508//44 506//44
f 488//45 489//45 509//45
f 488//45 509//45 508//45
f 489//46 490//46 510//46
f 489//46 510//46 509//46
f 490//47 491//47 511//47
f 490//47 511//47 510//47
f 491//48 492//48 512//48
f 491//48 512//48 511//48
f 492//49 493//49 513//49
f 492//49 513//49 512//49
f 493//50 494//50 514//50
f 493//50 514//50 513//50
f 494//51 495//51 515//51
f 494//51 515//51 514//51
f 495//52 496//52 516//52
f 495//52 516//52 515//52
f 496//53 497//53 517//53
f 496//53 517//53 516//53
f 497//54 498//54 518//54
f 497//54 518//54 517//54
f 498//55 499//55 519//55
f 498//55 519//55 518//55
f 499//56 500//56 520//56
f 499//56 520//56 519//56
f 500//57 501//57 521//57
f 500//57 521//57 520//57
f 501//58 502//58 522//58
f 501//58 522//58 521//58
f 502//59 503//59 523//59
f 502//59 523//59 522//59
f 503//60 504//60 524//60
f 503//60 524//60 523//60
f 504//61 505//61 525//61
f 504//61 525//61 524//61
f 505//62 487//62 507//62
f 505//62 507//62 525//62
f 507//63 506//63 526//63
f 507//63 526//63 527//63
f 506//64 508//64 528//64
f 506//64 528//64 526//64
f 508//65 509//65 529//65
f 508//65 529//65 528//65
f 509//66 510//66 530//66
f 509//66 530//66 529//66
f 510//67 511//67 531//67
f 510//67 531//67 530//67
f 511//68 512//68 532//68
f 511//68 532//68 531//68
f 512//69 513//69 533//69
f 512//69 533//69 532//69
f 513//70 514//70 534//70
f 513//70 534//70 533//70
f 514//71 515//71 535//71
f 514//71 535//71 534//71
f 515//72 516//72 536//72
f 515//72 536//72 535//72
f 516//73 517//73 537//73
f 516//73 537//73 536//73
f 517//74 518//74 538//74
f 517//74 538//74 537//74
f 518//75 519//75 539//75
f 518//75 539//75 538//75
f 519//76 520//76 540//76
f 519//76 540//76 539//76
f 520//77 521//77 541//77
f 520//77 541//77 540//77
f 521//78 522//78 542//78
f 521//78 542//78 541//78
f 522//79 523//79 543//79
f 522//79 543//79 542//79
f 523//80 524//80 544//80
f 523//80 544//80 543//80
f 524//81 525//81 545//81
f 524//81 545//81 544//81
f 525//82 507//82 527//82
f 525//82 527//82 545//82
f 527//83 526//83 546//83
f 527//83 546//83 547//83
f 526//84 528//84 548//84
f 526//84 548//84 546//84
f 528//85 529//85 549//85
f 528//85 549//85 548//85
f 529//86 530//86 550//86
f 529//86 550//86 549//86
f 530//87 531//87 551//87
f 530//87 551//87 550//87
f 531//88 532//88 552//88
f 531//88 552//88 551//88
f 532//89 533//89 553//89
f 532//89 553//89 552//89
f 533//90 534//90 554//90
f 533//90 554//90 553//90
f 534//91 535//91 555//91
f 534//91 555//91 554//91
f 535//92 536//92 556//92
f 535//92 556//92 555//92
f 536//93 537//93 557//93
f 536//93 557//93 556//93
f 537//94 538//94 558//94
f 537//94 558//94 557//94
f 538//95 539//95 559//95
f 538//95 559//95 558//95
f 539//96 540//96 560//96
f 539//96 560//96 559//96
f 540//97 541//97 561//97
f 540//97 561//97 560//97
f 541//98 542//98 562//98
f 541//98 562//98 561//98
f 542//99 543//99 563//99
f 542//99 563//99 562//99
f 543//100 544//100 564//100
f 543//100 564//100 563//100
f 544//101 545//101 565//101
f 544//101 565//101 564//101
f 545//102 527//102 547//102
f 545//102 547//102 565//102
f 547//103 546//103 566//103
f 547//103 566//103 567//103
f 546//104 548//104 568//104
f 546//104 568//104 566//104
f 548//105 549//105 569//105
f 548//105 569//105 568//105
f 549//106 550//106 570//106
f 549//106 570//106 569//106
f 550//107 551//107 571//107
f 550//107 571//107 570//107
f 551//108 552//108 572//108
f 551//108 572//108 571//108
f 552//109 553//109 573//109
f 552//109 573//109 572//109
f 553//110 554//110 574//110
f 553//110 574//110 573//110
f 554//111 555//111 575//111
f 554//111 575//111 574//111
f 555//112 556//112 576//112
f 555//112 576//112 575//112
f 556//113 557//113 577//113
f 556//113 577//113 576//113
f 557//114 558//114 578//114
f 557//114 578//114 577//114
f 558//115 559//115 579//115
f 558//115 579//115 578//115
f 559//116 560//116 580//116
f 559//116 580//116 579//116
f 560//117 561//117 581//117
f 560//117 581//117 580//117
f 561//118 562//118 582//118
f 561//118 582//118 581//118
f 562//119 563//119 583//119
f 562//119 583//119 582//119
f 563//120 564//120 584//120
f 563//120 584//120 583//120
f 564//121 565//121 585//121
f 564//121 585//121 584//121
f 565//122 547//122 567//122
f 565//122 567//122 585//122
f 567//123 566//123 586//123
f 567//123 586//123 587//123
f 566//124 568//124 588//124
f 566//124 588//124 586//124
f 568//125 569//125 589//125
f 568//125 589//125 588//125
f 569//126 570//126 590//126
f 569//126 590//126 589//126
f 570//127 571//127 591//127
f 570//127 591//127 590//127
f 571//128 572//128 592//128
f 571//128 592//128 591//128
f 572//129 573//129 593//129
f 572//129 593//129 592//129
f 573//130 574//130 594//130
f 573//130 594//130 593//130
f 574//131 575//131 595//131
f 574//131 595//131 594//131
f 575//132 576//132 596//132
f 575//132 596//132 595//132
f 576//133 577//133 597//133
f 576//133 597//133 596//133
f 577//134 578//134 598//134
f 577//134 598//134 597//134
f 578//135 579//135 599//135
f 578//135 599//135 598//135
f 579//136 580//136 600//136
f 579//136 600//136 599//136
f 580//137 581//137 601//137
f 580//137 601//137 600//137
f 581//138 582//138 602//138
f 581//138 602//138 601//138
f 582//139 583//139 603//139
f 582//139 603//139 602//139
f 583//140 584//140 604//140
f 583//140 604//140 603//140
f 584//141 585//141 605//141
f 584//141 605//141 604//141
f 585//142 567//142 587//142
f 585//142 587//142 605//142
f 587//143 586//143 606//143
f 586//144 588//144 606//144
f 588//145 589//145 606//145
f 589//146 590//146 606//146
f 590//147 591//147 606//147
f 591//148 592//148 606//148
f 592//149 593//149 606//149
f 593//150 594//150 606//150
f 594//151 595//151 606//151
f 595//152 596//152 606//152
f 596//153 597//153 606//153
f 597//154 598//154 606//154
f 598//155 599//155 606//155
f 599//156 600//156 606//156
f 600//157 601//157 606//157
f 601//158 602//158 606//158
f 602//159 603//159 606//159
f 603//160 604//160 606//160
f 604//161 605//161 606//161
f 605//162 587//162 606//162
f 607//163 608//163 609//163
f 607//164 610//164 608//164
f 607//165 611//165 610//165
f 607//166 612//166 611//166
f 607//167 613//167 612//167
f 607//168 614//168 613//168
f 607//169 615//169 614//169
f 607//170 616//170 615//170
f 607//171 617//171 616//171
f 607//172 618//172 617//172
f 607//173 619//173 618//173
f 607//174 620//174 619//174
f 607//175 621//175 620//175
f 607//176 622//176 621//176
f 607//177 623//177 622//177
f 607//178 624//178 623//178
f 607//179 625//179 624//179
f 607//180 626//180 625//180
f 607//181 627//181 626//181
f 607//182 609//182 627//182
f 609//183 608//183 628//183
f 609//183 628//183 629//183
f 608//184 610//184 630//184
f 608//184 630//184 628//184
f 610//185 611//185 631//185
f 610//185 631//185 630//185
f 611//186 612//186 632//186
f 611//186 632//186 631//186
f 612//187 613//187 633//187
f 612//187 633//187 632//187
f 613//188 614//188 634//188
f 613//188 634//188 633//188
f 614//189 615//189 635//189
f 614//189 635//189 634//189
f 615//190 616//190 636//190
f 615//190 636//190 635//190
f 616//191 617//191 637//191
f 616//191 637//191 636//191
f 617//192 618//192 638//192
f 617//192 638//192 637//192
f 618//193 619//193 639//193
f 618//193 639//193 638//193
f 619//194 620//194 640//194
f 619//194 640//194 639//194
f 620//195 621//195 641//195
f 620//195 641//195 640//195
f 621//196 622//196 642//196
f 621//196 642//196 641//196
f 622//197 623//197 643//197
f 622//197 643//197 642//197
f 623//198 624//198 644//198
f 623//198 644//198 643//198
f 624//199 625//199 645//199
f 624//199 645//199 644//199
f 625//200 626//200 646//200
f 625//200 646//200 645//200
f 626//201 627//201 647//201
f 626//201 647//201 646//201
f 627//202 609//202 629//202
f 627//202 629//202 647//202
f 629//203 628//203 648//203
f 629//203 648//203 649//203
f 628//204 630//204 650//204
f 628//204 650//204 648//204
f 630//205 631//205 651//205
f 630//205 651//205 650//205
f 631//206 632//206 652//206
f 631//206 652//206 651//206
f 632//207 633//207 653//207
f 632//207 653//207 652//207
f 633//208 634//208 654//208
f 633//208 654//208 653//208
f 634//209 635//209 655//209
f 634//209 655//209 654//209
f 635//210 636//210 656//210
f 635//210 656//210 655//210
f 636//211 637//211 657//211
f 636//211 657//211 656//211
f 637//212 638//212 658//212
f 637//212 658//212 657//212
f 638//213 639//213 659//213
f 638//213 659//213 658//213
f 639//214 640//214 660//214
f 639//214 660//214 659//214
f 640//215 641//215 661//215
f 640//215 661//215 660//215
f 641//216 642//216 662//216
f 641//216 662//216 661//216
f 642//217 643//217 663//217
f 642//217 663//217 662//217
f 643//218 644//218 664//218
f 643//218 664//218 663//218
f 644//219 645//219 665//219
f 644//219 665//219 664//219
f 645//220 646//220 666//220
f 645//220 666//220 665//220
f 646//221 647//221 667//221
f 646//221 667//221 666//221
f 647//222 629//222 649//222
f 647//222 649//222 667//222
f 649//223 648//223 668//223
f 649//223 668//223 669//223
f 648//224 650//224 670//224
f 648//224 670//224 668//224
f 650//225 651//225 671//225
f 650//225 671//225 670//225
f 651//226 652//226 672//226
f 651//226 672//226 671//226
f 652//227 653//227 673//227
f 652//227 673//227 672//227
f 653//228 654//228 674//228
f 653//228 674//228 673//228
f 654//229 655//229 675//229
f 654//229 675//229 674//229
f 655//230 656//230 676//230
f 655//230 676//230 675//230
f 656//231 657//231 677//231
f 656//231 677//231 676//231
f 657//232 658//232 678//232
f 657//232 678//232 677//232
f 658//233 659//233 679//233
f 658//233 679//233 678//233
f 659//234 660//234 680//234
f 659//234 680//234 679//234
f 660//235 661//235 681//235
f 660//235 681//235 680//235
f 661//236 662//236 682//236
f 661//236 682//236 681//236
f 662//237 663//237 683//237
f 662//237 683//237 682//237
f 663//238 664//238 684//238
f 663//238 684//238 683//238
f 664//239 665//239 685//239
f 664//239 685//239 684//239
f 665//240 666//240 686//240
f 665//240 686//240 685//240
f 666//241 667//241 687//241
f 666//241 687//241 686//241
f 667//242 649//242 669//242
f 667//242 669//242 687//242
f 669//243 668//243 688//243
f 669//243 688//243 689//243
f 668//244 670//244 690//244
f 668//244 690//244 688//244
f 670//245 671//245 691//245
f 670//245 691//245 690//245
f 671//246 672//246 692//246
f 671//246 692//246 691//246
f 672//247 673//247 693//247
f 672//247 693//247 692//247
f 673//248 674//248 694//248
f 673//248 694//248 693//248
f 674//249 675//249 695//249
f 674//249 695//249 694//249
f 675//250 676//250 696//250
f 675//250 696//250 695//250
f 676//251 677//251 697//251
f 676//251 697//251 696//251
f 677//252 678//252 698//252
f 677//252 698//252 697//252
f 678//253 679//253 699//253
f 678//253 699//253 698//253
f 679//254 680//254 700//254
f 679//254 700//254 699//254
f 680//255 681//255 701//255
f 680//255 701//255 700//255
f 681//256 682//256 702//256
f 681//256 702//256 701//256
f 682//257 683//257 703//257
f 682//257 703//257 702//257
f 683//258 684//258 704//258
f 683//258 704//258 703//258
f 684//259 685//259 705//259
f 684//259 705//259 704//259
f 685//260 686//260 706//260
f 685//260 706//260 705//260
f 686//261 687//261 707//261
f 686//261 707//261 706//261
f 687//262 669//262 689//262
f 687//262 689//262 707//262
f 689//263 688//263 708//263
f 689//263 708//263 709//263
f 688//264 690//264 710//264
f 688//264 710//264 708//264
f 690//265 691//265 711//265
f 690//265 711//265 710//265
f 691//266 692//266 712//266
f 691//266 712//266 711//266
f 692//267 693//267 713//267
f 692//267 713//267 712//267
f 693//268 694//268 714//268
f 693//268 714//268 713//268
f 694//269 695//269 715//269
f 694//269 715//269 714//269
f 695//270 696//270 716//270
f 695//270 716//270 715//270
f 696//271 697//271 717//271
f 696//271 717//271 716//271
f 697//272 698//272 718//272
f 697//272 718//272 717//272
f 698//273 699//273 719//273
f 698//273 719//273 718//273
f 699//274 700//274 720//274
f 699//274 720//274 719//274
f 700//275 701//275 721//275
f 700//275 721//275 720//275
f 701//276 702//276 722//276
f 701//276 722//276 721//276
f 702//277 703//277 723//277
f 702//277 723//277 722//277
f 703//278 704//278 724//278
f 703//278 724//278 723//278
f 704//279 705//279 725//279
f 704//279 725//279 724//279
f 705//280 706//280 726//280
f 705//280 726//280 725//280
f 706//281 707//281 727//281
f 706//281 727//281 726//281
f 707//282 689//282 709//282
f 707//282 709//282 727//282
f 709//283 708//283 728//283
f 708//284 710//284 728//284
f 710//285 711//285 728//285
f 711//286 712//286 728//286
f 712//287 713//287 728//287
f 713//288 714//288 728//288
f 714//289 715//289 728//289
f 715//290 716//290 728//290
f 716//291 717//291 728//291
f 717//292 718//292 728//292
f 718//293 719//293 728//293
f 719//294 720//294 728//294
f 720//295 721//295 728//295
f 721//296 722//296 728//296
f 722//297 723//297 728//297
f 723//298 724//298 728//298
f 724//299 725//299 728//299
f 725//300 726//300 728//300
f 726//301 727//301 728//301
f 727//302 709//302 728//302
usemtl Glass
f 729//303 730//303 731//303
f 729//304 732//304 730//304
f 729//305 733//305 732//305
f 729//306 734//306 733//306
f 729//307 735//307 734//307
f 729//308 736//308 735//308
f 729//309 737//309 736//309
f 729//310 738//310 737//310
f 729//311 739//311 738//311
f 729//312 740//312 739//312
f 729//313 741//313 740//313
f 729//314 742//314 741//314
f 729//315 743//315 742//315
f 729//316 744//316 743//316
f 729//317 745//317 744//317
f 729//318 746//318 745//318
f 729//319 747//319 746//319
f 729//320 748//320 747//320
f 729//321 749//321 748//321
f 729//322 731//322 749//322
f 731//323 730//323 750//323
f 731//323 750//323 751//323
f 730//324 732//324 752//324
f 730//324 752//324 750//324
f 732//325 733//325 753//325
f 732//325 753//325 752//325
f 733//326 734//326 754//326
f 733//326 754//326 753//326
f 734//327 735//327 755//327
f 734//327 755//327 754//327
f 735//328 736//328 756//328
f 735//328 756//328 755//328
f 736//329 737//329 757//329
f 736//329 757//329 756//329
f 737//330 738//330 758//330
f 737//330 758//330 757//330
f 738//331 739//331 759//331
f 738//331 759//331 758//331
f 739//332 740//332 760//332
f 739//332 760//332 759//332
f 740//333 741//333 761//333
f 740//333 761//333 760//333
f 741//334 742//334 762//334
f 741//334 762//334 761//334
f 742//335 743//335 763//335
f 742//335 763//335 762//335
f 743//336 744//336 764//336
f 743//336 764//336 763//336
f 744//337 745//337 765//337
f 744//337 765//337 764//337
f 745//338 746//338 766//338
f 745//338 766//338 765//338
f 746//339 747//339 767//339
f 746//339 767//339 766//339
f 747//340 748//340 768//340
f 747//340 768//340 767//340
f 748//341 749//341 769//341
f 748//341 769//341 768//341
f 749//342 731//342 751//342
f 749//342 751//342 769//342
f 751//343 750//343 770//343
f 751//343 770//343 771//343
f 750//344 752//344 772//344
f 750//344 772//344 770//344
f 752//345 753//345 773//345
f 752//345 773//345 772//345
f 753//346 754//346 774//346
f 753//346 774//346 773//346
f 754//347 755//347 775//347
f 754//347 775//347 774//347
f 755//348 756//348 776//348
f 755//348 776//348 775//348
f 756//349 757//349 777//349
f 756//349 777//349 776//349
f 757//350 758//350 778//350
f 757//350 778//350 777//350
f 758//351 759//351 779//351
f 758//351 779//351 778//351
f 759//352 760//352 780//352
f 759//352 780//352 779//352
f 760//353 761//353 781//353
f 760//353 781//353 780//353
f 761//354 762//354 782//354
f 761//354 782//354 781//354
f 762//355 763//355 783//355
f 762//355 783//355 782//355
f 763//356 764//356 784//356
f 763//356 784//356 783//356
f 764//357 765//357 785//357
f 764//357 785//357 784//357
f 765//358 766//358 786//358
f 765//358 786//358 785//358
f 766//359 767//359 787//359
f 766//359 787//359 786//359
f 767//360 768//360 788//360
f 767//360 788//360 787//360
f 768//361 769//361 789//361
f 768//361 789//361 788//361
f 769//362 751//362 771//362
f 769//362 771//362 789//362
f 771//363 770//363 790//363
f 771//363 790//363 791//363
f 770//364 772//364 792//364
f 770//364 792//364 790//364
f 772//365 773//365 793//365
f 772//365 793//365 792//365
f 773//366 774//366 794//366
f 773//366 794//366 793//366
f 774//367 775//367 795//367
f 774//367 795//367 794//367
f 775//368 776//368 796//368
f 775//368 796//368 795//368
f 776//369 777//369 797//369
f 776//369 797//369 796//369
f 777//370 778//370 798//370
f 777//370 798//370 797//370
f 778//371 779//371 799//371
f 778//371 799//371 798//371
f 779//372 780//372 800//372
f 779//372 800//372 799//372
f 780//373 781//373 801//373
f 780//373 801//373 800//373
f 781//374 782//374 802//374
f 781//374 802//374 801//374
f 782//375 783//375 803//375
f 782//375 803//375 802//375
f 783//376 784//376 804//376
f 783//376 804//376 803//376
f 784//377 785//377 805//377
f 784//377 805//377 804//377
f 785//378 786//378 806//378
f 785//378 806//378 805//378
f 786//379 787//379 807//379
f 786//379 807//379 806//379
f 787//380 788//380 808//380
f 787//380 808//380 807//380
f 788//381 789//381 809//381
f 788//381 809//381 808//381
f 789//382 771//382 791//382
f 789//382 791//382 809//382
f 791//383 790//383 810//383
f 791//383 810//383 811//383
f 790//384 792//384 812//384
f 790//384 812//384 810//384
f 792//385 793//385 813//385
f 792//385 813//385 812//385
f 793//386 794//386 814//386
f 793//386 814//386 813//386
f 794//387 795//387 815//387
f 794//387 815//387 814//387
f 795//388 796//388 816//388
f 795//388 816//388 815//388
f 796//389 797//389 817//389
f 796//389 817//389 816//389
f 797//390 798//390 818//390
f 797//390 818//390 817//390
f 798//391 799//391 819//391
f 798//391 819//391 818//391
f 799//392 800//392 820//392
f 799//392 820//392 819//392
f 800//393 801//393 821//393
f 800//393 821//393 820//393
f 801//394 802//394 822//394
f 801//394 822//394 821//394
f 802//395 803//395 823//395
f 802//395 823//395 822//395
f 803//396 804//396 824//396
f 803//396 824//396 823//396
f 804//397 805//397 825//397
f 804//397 825//397 824//397
f 805//398 806//398 826//398
f 805//398 826//398 825//398
f 806//399 807//399 827//399
f 806//399 827//399 826//399
f 807//400 808//400 828//400
f 807//400 828//400 827//400
f 808//401 809//401 829//401
f 808//401 829//401 828//401
f 809//402 791//402 811//402
f 809//402 811//402 829//402
f 811//403 810//403 830//403
f 811//403 830//403 831//403
f 810//404 812//404 832//404
f 810//404 832//404 830//404
f 812//405 813//405 833//405
f 812//405 833//405 832//405
f 813//406 814//406 834//406
f 813//406 834//406 833//406
f 814//407 815//407 835//407
f 814//407 835//407 834//407
f 815//408 816//408 836//408
f 815//408 836//408 835//408
f 816//409 817//409 837//409
f 816//409 837//409 836//409
f 817//410 818//410 838//410
f 817//410 838//410 837//410
f 818//411 819//411 839//411
f 818//411 839//411 838//411
f 819//412 820//412 840//412
f 819//412 840//412 839//412
f 820//413 821//413 841//413
f 820//413 841//413 840//413
f 821//414 822//414 842//414
f 821//414 842//414 841//414
f 822//415 823//415 843//415
f 822//415 843//415 842//415
f 823//416 824//416 844//416
f 823//416 844//416 843//416
f 824//417 825//417 845//417
f 824//417 845//417 844//417
f 825//418 826//418 846//418
f 825//418 846//418 845//418
f 826//419 827//419 847//419
f 826//419 847//419 846//419
f 827//420 828//420 848//420
f 827//420 848//420 847//420
f 828//421 829//421 849//421
f 828//421 849//421 848//421
f 829//422 811//422 831//422
f 829//422 831//422 849//422
f 831//423 830//423 850//423
f 830//424 832//424 850//424
f 832//425 833//425 850//425
f 833//426 834//426 850//426
f 834//427 835//427 850//427
f 835//428 836//428 850//428
f 836//429 837//429 850//429
f 837//430 838//430 850//430
f 838//431 839//431 850//431
f 839//432 840//432 850//432
f 840//433 841//433 850//433
f 841//434 842//434 850//434
f 842//435 843//435 850//435
f 843//436 844//436 850//436
f 844//437 845//437 850//437
f 845//438 846//438 850//438
f 846//439 847//439 850//439
f 847//440 848//440 850//440
f 848//441 849//441 850//441
f 849//442 831//442 850//442
usemtl Hull
f 1//1 4//1 5//1
f 1//1 5//1 2//1
f 6//1 8//1 9//1
f 6//1 9//1 7//1
f 12//1 13//1 4//1
f 12//1 4//1 1//1
f 14//1 15//1 8//1
f 14//1 8//1 6//1
f 17//1 18//1 13//1
f 17//1 13//1 12//1
f 19//1 20//1 15//1
f 19//1 15//1 14//1
f 22//1 23//1 18//1
f 22//1 18//1 17//1
f 24//1 25//1 20//1
f 24//1 20//1 19//1
f 27//1 28//1 23//1
f 27//1 23//1 22//1
f 29//1 30//1 25//1
f 29//1 25//1 24//1
f 32//1 33//1 28//1
f 32//1 28//1 27//1
f 34//1 35//1 30//1
f 34//1 30//1 29//1
f 37//1 38//1 33//1
f 37//1 33//1 32//1
f 39//1 40//1 35//1
f 39//1 35//1 34//1
f 42//1 43//1 38//1
f 42//1 38//1 37//1
f 44//1 45//1 40//1
f 44//1 40//1 39//1
f 47//1 48//1 43//1
f 47//1 43//1 42//1
f 49//1 50//1 45//1
f 49//1 45//1 44//1
f 52//1 53//1 48//1
f 52//1 48//1 47//1
f 54//1 55//1 50//1
f 54//1 50//1 49//1
f 57//1 58//1 53//1
f 57//1 53//1 52//1
f 59//1 60//1 55//1
f 59//1 55//1 54//1
f 62//1 63//1 58//1
f 62//1 58//1 57//1
f 64//1 65//1 60//1
f 64//1 60//1 59//1
f 67//1 68//1 63//1
f 67//1 63//1 62//1
f 69//1 70//1 65//1
f 69//1 65//1 64//1
f 72//1 73//1 68//1
f 72//1 68//1 67//1
f 74//1 75//1 70//1
f 74//1 70//1 69//1
f 77//1 78//1 73//1
f 77//1 73//1 72//1
f 79//1 80//1 75//1
f 79//1 75//1 74//1
f 82//1 83//1 78//1
f 82//1 78//1 77//1
f 84//1 85//1 80//1
f 84//1 80//1 79//1
f 87//1 88//1 83//1
f 87//1 83//1 82//1
f 89//1 90//1 85//1
f 89//1 85//1 84//1
f 92//1 93//1 88//1
f 92//1 88//1 87//1
f 94//1 95//1 90//1
f 94//1 90//1 89//1
f 97//1 98//1 93//1
f 97//1 93//1 92//1
f 99//1 100//1 95//1
f 99//1 95//1 94//1
f 2//1 5//1 98//1
f 2//1 98//1 97//1
f 7//1 9//1 100//1
f 7//1 100//1 99//1
f 103//2 105//2 106//2
f 103//2 106//2 104//2
f 107//2 109//2 110//2
f 107//2 110//2 108//2
f 11//3 10//3 113//3
f 11//3 113//3 114//3
f 116//3 115//3 112//3
f 116//3 112//3 111//3
f 104//2 106//2 118//2
f 104//2 118//2 117//2
f 108//2 110//2 120//2
f 108//2 120//2 119//2
f 10//4 16//4 122//4
f 10//4 122//4 113//4
f 115//4 123//4 121//4
f 115//4 121//4 112//4
f 117//2 118//2 125//2
f 117//2 125//2 124//2
f 119//2 120//2 127//2
f 119//2 127//2 126//2
f 16//5 21//5 129//5
f 16//5 129//5 122//5
f 123//5 130//5 128//5
f 123//5 128//5 121//5
f 124//2 125//2 132//2
f 124//2 132//2 131//2
f 126//2 127//2 134//2
f 126//2 134//2 133//2
f 21//6 26//6 136//6
f 21//6 136//6 129//6
f 130//6 137//6 135//6
f 130//6 135//6 128//6
f 131//2 132//2 139//2
f 131//2 139//2 138//2
f 133//2 134//2 141//2
f 133//2 141//2 140//2
f 26//7 31//7 143//7
f 26//7 143//7 136//7
f 137//7 144//7 142//7
f 137//7 142//7 135//7
f 138//2 139//2 146//2
f 138//2 146//2 145//2
f 140//2 141//2 148//2
f 140//2 148//2 147//2
f 31//8 36//8 150//8
f 31//8 150//8 143//8
f 144//8 151//8 149//8
f 144//8 149//8 142//8
f 145//2 146//2 153//2
f 145//2 153//2 152//2
f 147//2 148//2 155//2
f 147//2 155//2 154//2
f 36//9 41//9 157//9
f 36//9 157//9 150//9
f 151//9 158//9 156//9
f 151//9 156//9 149//9
f 152//2 153//2 160//2
f 152//2 160//2 159//2
f 154//2 155//2 162//2
f 154//2 162//2 161//2
f 41//10 46//10 164//10
f 41//10 164//10 157//10
f 158//10 165//10 163//10
f 158//10 163//10 156//10
f 159//2 160//2 167//2
f 159//2 167//2 166//2
f 161//2 162//2 169//2
f 161//2 169//2 168//2
f 46//11 51//11 171//11
f 46//11 171//11 164//11
f 165//11 172//11 170//11
f 165//11 170//11 163//11
f 166//2 167//2 174//2
f 166//2 174//2 173//2
f 168//2 169//2 176//2
f 168//2 176//2 175//2
f 51//12 56//12 178//12
f 51//12 178//12 171//12
f 172//12 179//12 177//12
f 172//12 177//12 170//12
f 173//2 174//2 181//2
f 173//2 181//2 180//2
f 175//2 176//2 183//2
f 175//2 183//2 182//2
f 56//13 61//13 185//13
f 56//13 185//13 178//13
f 179//13 186//13 184//13
f 179//13 184//13 177//13
f 180//2 181//2 188//2
f 180//2 188//2 187//2
f 182//2 183//2 190//2
f 182//2 190//2 189//2
f 61//14 66//14 192//14
f 61//14 192//14 185//14
f 186//14 193//14 191//14
f 186//14 191//14 184//14
f 187//2 188//2 195//2
f 187//2 195//2 194//2
f 189//2 190//2 197//2
f 189//2 197//2 196//2
f 66//15 71//15 199//15
f 66//15 199//15 192//15
f 193//15 200//15 198//15
f 193//15 198//15 191//15
f 194//2 195//2 202//2
f 194//2 202//2 201//2
f 196//2 197//2 204//2
f 196//2 204//2 203//2
f 71//16 76//16 206//16
f 71//16 206//16 199//16
f 200//16 207//16 205//16
f 200//16 205//16 198//16
f 201//2 202//2 209//2
f 201//2 209//2 208//2
f 203//2 204//2 211//2
f 203//2 211//2 210//2
f 76//17 81//17 213//17
f 76//17 213//17 206//17
f 207//17 214//17 212//17
f 207//17 212//17 205//17
f 208//2 209//2 216//2
f 208//2 216//2 215//2
f 210//2 211//2 218//2
f 210//2 218//2 217//2
f 81//18 86//18 220//18
f 81//18 220//18 213//18
f 214//18 221//18 219//18
f 214//18 219//18 212//18
f 215//2 216//2 223//2
f 215//2 223//2 222//2
f 217//2 218//2 225//2
f 217//2 225//2 224//2
f 86//19 91//19 227//19
f 86//19 227//19 220//19
f 221//19 228//19 226//19
f 221//19 226//19 219//19
f 222//2 223//2 230//2
f 222//2 230//2 229//2
f 224//2 225//2 232//2
f 224//2 232//2 231//2
f 91//20 96//20 234//20
f 91//20 234//20 227//20
f 228//20 235//20 233//20
f 228//20 233//20 226//20
f 229//2 230//2 237//2
f 229//2 237//2 236//2
f 231//2 232//2 239//2
f 231//2 239//2 238//2
f 96//21 101//21 241//21
f 96//21 241//21 234//21
f 235//21 242//21 240//21
f 235//21 240//21 233//21
f 236//2 237//2 105//2
f 236//2 105//2 103//2
f 238//2 239//2 109//2
f 238//2 109//2 107//2
f 101//22 11//22 114//22
f 101//22 114//22 241//22
f 242//22 116//22 111//22
f 242//22 111//22 240//22
f 243//1 246//1 247//1
f 243//1 247//1 244//1
f 248//1 250//1 251//1
f 248//1 251//1 249//1
f 254//1 255//1 246//1
f 254//1 246//1 243//1
f 256//1 257//1 250//1
f 256//1 250//1 248//1
f 259//1 260//1 255//1
f 259//1 255//1 254//1
f 261//1 262//1 257//1
f 261//1 257//1 256//1
f 264//1 265//1 260//1
f 264//1 260//1 259//1
f 266//1 267//1 262//1
f 266//1 262//1 261//1
f 269//1 270//1 265//1
f 269//1 265//1 264//1
f 271//1 272//1 267//1
f 271//1 267//1 266//1
f 274//1 275//1 270//1
f 274//1 270//1 269//1
f 276//1 277//1 272//1
f 276//1 272//1 271//1
f 279//1 280//1 275//1
f 279//1 275//1 274//1
f 281//1 282//1 277//1
f 281//1 277//1 276//1
f 284//1 285//1 280//1
f 284//1 280//1 279//1
f 286//1 287//1 282//1
f 286//1 282//1 281//1
f 289//1 290//1 285//1
f 289//1 285//1 284//1
f 291//1 292//1 287//1
f 291//1 287//1 286//1
f 294//1 295//1 290//1
f 294//1 290//1 289//1
f 296//1 297//1 292//1
f 296//1 292//1 291//1
f 299//1 300//1 295//1
f 299//1 295//1 294//1
f 301//1 302//1 297//1
f 301//1 297//1 296//1
f 304//1 305//1 300//1
f 304//1 300//1 299//1
f 306//1 307//1 302//1
f 306//1 302//1 301//1
f 309//1 310//1 305//1
f 309//1 305//1 304//1
f 311//1 312//1 307//1
f 311//1 307//1 306//1
f 314//1 315//1 310//1
f 314//1 310//1 309//1
f 316//1 317//1 312//1
f 316//1 312//1 311//1
f 319//1 320//1 315//1
f 319//1 315//1 314//1
f 321//1 322//1 317//1
f 321//1 317//1 316//1
f 324//1 325//1 320//1
f 324//1 320//1 319//1
f 326//1 327//1 322//1
f 326//1 322//1 321//1
f 329//1 330//1 325//1
f 329//1 325//1 324//1
f 331//1 332//1 327//1
f 331//1 327//1 326//1
f 334//1 335//1 330//1
f 334//1 330//1 329//1
f 336//1 337//1 332//1
f 336//1 332//1 331//1
f 339//1 340//1 335//1
f 339//1 335//1 334//1
f 341//1 342//1 337//1
f 341//1 337//1 336//1
f 244//1 247//1 340//1
f 244//1 340//1 339//1
f 249//1 251//1 342//1
f 249//1 342//1 341//1
f 345//2 347//2 348//2
f 345//2 348//2 346//2
f 349//2 351//2 352//2
f 349//2 352//2 350//2
f 253//3 252//3 355//3
f 253//3 355//3 356//3
f 358//3 357//3 354//3
f 358//3 354//3 353//3
f 346//2 348//2 360//2
f 346//2 360//2 359//2
f 350//2 352//2 362//2
f 350//2 362//2 361//2
f 252//4 258//4 364//4
f 252//4 364//4 355//4
f 357//4 365//4 363//4
f 357//4 363//4 354//4
f 359//2 360//2 367//2
f 359//2 367//2 366//2
f 361//2 362//2 369//2
f 361//2 369//2 368//2
f 258//5 263//5 371//5
f 258//5 371//5 364//5
f 365//5 372//5 370//5
f 365//5 370//5 363//5
f 366//2 367//2 374//2
f 366//2 374//2 373//2
f 368//2 369//2 376//2
f 368//2 376//2 375//2
f 263//6 268//6 378//6
f 263//6 378//6 371//6
f 372//6 379//6 377//6
f 372//6 377//6 370//6
f 373//2 374//2 381//2
f 373//2 381//2 380//2
f 375//2 376//2 383//2
f 375//2 383//2 382//2
f 268//7 273//7 385//7
f 268//7 385//7 378//7
f 379//7 386//7 384//7
f 379//7 384//7 377//7
f 380//2 381//2 388//2
f 380//2 388//2 387//2
f 382//2 383//2 390//2
f 382//2 390//2 389//2
f 273//8 278//8 392//8
f 273//8 392//8 385//8
f 386//8 393//8 391//8
f 386//8 391//8 384//8
f 387//2 388//2 395//2
f 387//2 395//2 394//2
f 389//2 390//2 397//2
f 389//2 397//2 396//2
f 278//9 283//9 399//9
f 278//9 399//9 392//9
f 393//9 400//9 398//9
f 393//9 398//9 391//9
f 394//2 395//2 402//2
f 394//2 402//2 401//2
f 396//2 397//2 404//2
f 396//2 404//2 403//2
f 283//10 288//10 406//10
f 283//10 406//10 399//10
f 400//10 407//10 405//10
f 400//10 405//10 398//10
f 401//2 402//2 409//2
f 401//2 409//2 408//2
f 403//2 404//2 411//2
f 403//2 411//2 410//2
f 288//11 293//11 413//11
f 288//11 413//11 406//11
f 407//11 414//11 412//11
f 407//11 412//11 405//11
f 408//2 409//2 416//2
f 408//2 416//2 415//2
f 410//2 411//2 418//2
f 410//2 418//2 417//2
f 293//12 298//12 420//12
f 293//12 420//12 413//12
f 414//12 421//12 419//12
f 414//12 419//12 412//12
f 415//2 416//2 423//2
f 415//2 423//2 422//2
f 417//2 418//2 425//2
f 417//2 425//2 424//2
f 298//13 303//13 427//13
f 298//13 427//13 420//13
f 421//13 428//13 426//13
f 421//13 426//13 419//13
f 422//2 423//2 430//2
f 422//2 430//2 429//2
f 424//2 425//2 432//2
f 424//2 432//2 431//2
f 303//14 308//14 434//14
f 303//14 434//14 427//14
f 428//14 435//14 433//14
f 428//14 433//14 426//14
f 429//2 430//2 437//2
f 429//2 437//2 436//2
f 431//2 432//2 439//2
f 431//2 439//2 438//2
f 308//15 313//15 441//15
f 308//15 441//15 434//15
f 435//15 442//15 440//15
f 435//15 440//15 433//15
f 436//2 437//2 444//2
f 436//2 444//2 443//2
f 438//2 439//2 446//2
f 438//2 446//2 445//2
f 313//16 318//16 448//16
f 313//16 448//16 441//16
f 442//16 449//16 447//16
f 442//16 447//16 440//16
f 443//2 444//2 451//2
f 443//2 451//2 450//2
f 445//2 446//2 453//2
f 445//2 453//2 452//2
f 318//17 323//17 455//17
f 318//17 455//17 448//17
f 449//17 456//17 454//17
f 449//17 454//17 447//17
f 450//2 451//2 458//2
f 450//2 458//2 457//2
f 452//2 453//2 460//2
f 452//2 460//2 459//2
f 323//18 328//18 462//18
f 323//18 462//18 455//18
f 456//18 463//18 461//18
f 456//18 461//18 454//18
f 457//2 458//2 465//2
f 457//2 465//2 464//2
f 459//2 460//2 467//2
f 459//2 467//2 466//2
f 328//19 333//19 469//19
f 328//19 469//19 462//19
f 463//19 470//19 468//19
f 463//19 468//19 461//19
f 464//2 465//2 472//2
f 464//2 472//2 471//2
f 466//2 467//2 474//2
f 466//2 474//2 473//2
f 333//20 338//20 476//20
f 333//20 476//20 469//20
f 470//20 477//20 475//20
f 470//20 475//20 468//20
f 471//2 472//2 479//2
f 471//2 479//2 478//2
f 473//2 474//2 481//2
f 473//2 481//2 480//2
f 338//21 343//21 483//21
f 338//21 483//21 476//21
f 477//21 484//21 482//21
f 477//21 482//21 475//21
f 478//2 479//2 347//2
f 478//2 347//2 345//2
f 480//2 481//2 351//2
f 480//2 351//2 349//2
f 343//22 253//22 356//22
f 343//22 356//22 483//22
f 484//22 358//22 353//22
f 484//22 353//22 482//22
f 851//443 852//443 853//443
f 851//444 854//444 852//444
f 851//445 855//445 854//445
f 851//446 856//446 855//446
f 851//447 857//447 856//447
f 851//448 858//448 857//448
f 851//449 859//449 858//449
f 851//450 860//450 859//450
f 851//451 861//451 860//451
f 851//452 853//452 861//452
f 853//453 852//453 862//453
f 853//453 862//453 863//453
f 852//454 854//454 864//454
f 852//454 864//454 862//454
f 854//455 855//455 865//455
f 854//455 865//455 864//455
f 855//456 856//456 866//456
f 855//456 866//456 865//456
f 856//457 857//457 867//457
f 856//457 867//457 866//457
f 857//458 858//458 868//458
f 857//458 868//458 867//458
f 858//459 859//459 869//459
f 858//459 869//459 868//459
f 859//460 860//460 870//460
f 859//460 870//460 869//460
f 860//461 861//461 871//461
f 860//461 871//461 870//461
f 861//462 853//462 863//462
f 861//462 863//462 871//462
f 863//463 862//463 872//463
f 863//463 872//463 873//463
f 862//464 864//464 874//464
f 862//464 874//464 872//464
f 864//465 865//465 875//465
f 864//465 875//465 874//465
f 865//466 866//466 876//466
f 865//466 876//466 875//466
f 866//467 867//467 877//467
f 866//467 877//467 876//467
f 867//468 868//468 878//468
f 867//468 878//468 877//468
f 868//469 869//469 879//469
f 868//469 879//469 878//469
f 869//470 870//470 880//470
f 869//470 880//470 879//470
f 870//471 871//471 881//471
f 870//471 881//471 880//471
f 871//472 863//472 873//472
f 871//472 873//472 881//472
f 873//473 872//473 882//473
f 872//474 874//474 882//474
f 874//475 875//475 882//475
f 875//476 876//476 882//476
f 876//477 877//477 882//477
f 877//478 878//478 882//478
f 878//479 879//479 882//479
f 879//480 880//480 882//480
f 880//481 881//481 882//481
f 881//482 873//482 882//482
f 883//443 884//443 885//443
f 883//444 886//444 884//444
f 883//445 887//445 886//445
f 883//446 888//446 887//446
f 883//447 889//447 888//447
f 883//448 890//448 889//448
f 883//449 891//449 890//449
f 883//450 892//450 891//450
f 883//451 893//451 892//451
f 883//452 885//452 893//452
f 885//453 884//453 894//453
f 885//453 894//453 895//453
f 884//454 886//454 896//454
f 884//454 896//454 894//454
f 886//455 887//455 897//455
f 886//455 897//455 896//455
f 887//456 888//456 898//456
f 887//456 898//456 897//456
f 888//457 889//457 899//457
f 888//457 899//457 898//457
f 889//458 890//458 900//458
f 889//458 900//458 899//458
f 890//459 891//459 901//459
f 890//459 901//459 900//459
f 891//460 892//460 902//460
f 891//460 902//460 901//460
f 892//461 893//461 903//461
f 892//461 903//461 902//461
f 893//462 885//462 895//462
f 893//462 895//462 903//462
f 895//463 894//463 904//463
f 895//463 904//463 905//463
f 894//464 896//464 906//464
f 894//464 906//464 904//464
f 896//465 897//465 907//465
f 896//465 907//465 906//465
f 897//466 898//466 908//466
f 897//466 908//466 907//466
f 898//467 899//467 909//467
f 898//467 909//467 908//467
f 899//468 900//468 910//468
f 899//468 910//468 909//468
f 900//469 901//469 911//469
f 900//469 911//469 910//469
f 901//470 902//470 912//470
f 901//470 912//470 911//470
f 902//471 903//471 913//471
f 902//471 913//471 912//471
f 903//472 895//472 905//472
f 903//472 905//472 913//472
f 905//473 904//473 914//473
f 904//474 906//474 914//474
f 906//475 907//475 914//475
f 907//476 908//476 914//476
f 908//477 909//477 914//477
f 909//478 910//478 914//478
f 910//479 911//479 914//479
f 911//480 912//480 914//480
f 912//481 913//481 914//481
f 913//482 905//482 914//482
f 915//483 916//483 917//483
f 915//484 918//484 916//484
f 915//485 919//485 918//485
f 915//486 920//486 919//486
f 915//487 921//487 920//487
f 915//488 922//488 921//488
f 915//489 923//489 922//489
f 915//490 924//490 923//490
f 915//491 925//491 924//491
f 915//492 917//492 925//492
f 917//493 916//493 926//493
f 917//493 926//493 927//493
f 916//494 918//494 928//494
f 916//494 928//494 926//494
f 918//495 919//495 929//495
f 918//495 929//495 928//495
f 919//496 920//496 930//496
f 919//496 930//496 929//496
f 920//497 921//497 931//497
f 920//497 931//497 930//497
f 921//498 922//498 932//498
f 921//498 932//498 931//498
f 922//499 923//499 933//499
f 922//499 933//499 932//499
f 923//500 924//500 934//500
f 923//500 934//500 933//500
f 924//501 925//501 935//501
f 924//501 935//501 934//501
f 925//502 917//502 927//502
f 925//502 927//502 935//502
f 927//503 926//503 936//503
f 927//503 936//503 937//503
f 926//504 928//504 938//504
f 926//504 938//504 936//504
f 928//505 929//505 939//505
f 928//505 939//505 938//505
f 929//506 930//506 940//506
f 929//506 940//506 939//506
f 930//507 931//507 941//507
f 930//507 941//507 940//507
f 931//508 932//508 942//508
f 931//508 942//508 941//508
f 932//509 933//509 943//509
f 932//509 943//509 942//509
f 933//510 934//510 944//510
f 933//510 944//510 943//510
f 934//511 935//511 945//511
f 934//511 945//511 944//511
f 935//512 927//512 937//512
f 935//512 937//512 945//512
f 937//513 936//513 946//513
f 936//514 938//514 946//514
f 938//515 939//515 946//515
f 939//516 940//516 946//516
f 940//517 941//517 946//517
f 941//518 942//518 946//518
f 942//519 943//519 946//519
f 943//520 944//520 946//520
f 944//521 945//521 946//521
f 945//522 937//522 946//522
usemtl Rubber
f 114//3 113//3 115//3
f 114//3 115//3 116//3
f 113//4 122//4 123//4
f 113//4 123//4 115//4
f 122//5 129//5 130//5
f 122//5 130//5 123//5
f 129//6 136//6 137//6
f 129//6 137//6 130//6
f 136//7 143//7 144//7
f 136//7 144//7 137//7
f 143//8 150//8 151//8
f 143//8 151//8 144//8
f 150//9 157//9 158//9
f 150//9 158//9 151//9
f 157//10 164//10 165//10
f 157//10 165//10 158//10
f 164//11 171//11 172//11
f 164//11 172//11 165//11
f 171//12 178//12 179//12
f 171//12 179//12 172//12
f 178//13 185//13 186//13
f 178//13 186//13 179//13
f 185//14 192//14 193//14
f 185//14 193//14 186//14
f 192//15 199//15 200//15
f 192//15 200//15 193//15
f 199//16 206//16 207//16
f 199//16 207//16 200//16
f 206//17 213//17 214//17
f 206//17 214//17 207//17
f 213//18 220//18 221//18
f 213//18 221//18 214//18
f 220//19 227//19 228//19
f 220//19 228//19 221//19
f 227//20 234//20 235//20
f 227//20 235//20 228//20
f 234//21 241//21 242//21
f 234//21 242//21 235//21
f 241//22 114//22 116//22
f 241//22 116//22 242//22
f 356//3 355//3 357//3
f 356//3 357//3 358//3
f 355//4 364//4 365//4
f 355//4 365//4 357//4
f 364//5 371//5 372//5
f 364//5 372//5 365//5
f 371//6 378//6 379//6
f 371//6 379//6 372//6
f 378//7 385//7 386//7
f 378//7 386//7 379//7
f 385//8 392//8 393//8
f 385//8 393//8 386//8
f 392//9 399//9 400//9
f 392//9 400//9 393//9
f 399//10 406//10 407//10
f 399//10 407//10 400//10
f 406//11 413//11 414//11
f 406//11 414//11 407//11
f 413//12 420//12 421//12
f 413//12 421//12 414//12
f 420//13 427//13 428//13
f 420//13 428//13 421//13
f 427//14 434//14 435//14
f 427//14 435//14 428//14
f 434//15 441//15 442//15
f 434//15 442//15 435//15
f 441//16 448//16 449//16
f 441//16 449//16 442//16
f 448//17 455//17 456//17
f 448//17 456//17 449//17
f 455//18 462//18 463//18
f 455//18 463//18 456//18
f 462//19 469//19 470//19
f 462//19 470//19 463//19
f 469//20 476//20 477//20
f 469//20 477//20 470//20
f 476//21 483//21 484//21
f 476//21 484//21 477//21
f 483//22 356//22 358//22
f 483//22 358//22 484//22
